<svg width="728" height="329" viewBox="0 0 728 329" fill="none" xmlns="http://www.w3.org/2000/svg">
<g clip-path="url(#clip0_336_545)">
<path d="M118.397 210.552C118.397 251.532 99.4432 264.037 72.8616 285.298C59.5837 295.928 31.5126 315.263 11.7626 328.923L0 313.363C44.7648 275.412 57.6832 258.337 57.6832 213.197V37.1804C57.6832 22.7499 53.1374 18.205 37.9589 16.3049L25.0663 14.79V0H151.04V14.79L138.147 16.3049C122.968 18.205 118.397 22.7499 118.397 37.1804V210.552Z" fill="black"/>
<path d="M587.233 154.216H660.095C660.865 118.166 643.016 106.791 625.192 106.791C605.083 106.791 590.675 121.966 587.233 154.216ZM528.42 191.011C528.42 131.081 576.216 91.2305 626.708 91.2305C677.2 91.2305 712.847 118.166 721.939 173.551H586.489C587.619 226.292 612.3 257.027 650.233 257.027C673.373 257.027 701.829 248.297 710.947 212.246H728.026C719.679 266.887 681.72 293.052 630.509 293.052C567.509 293.052 528.446 250.171 528.446 190.986" fill="black"/>
<path d="M289.52 237.667C277.116 253.33 270.335 259.672 257.083 259.826H257.058C241.622 259.98 228.011 251.892 227.754 224.443V91.5129L146.134 99.5241V112.851L155.663 114.751C169.018 117.421 171.303 122.377 171.303 129.232L171.355 222.337C171.868 277.235 199.092 293.36 229.988 293.078H230.039C256.544 292.77 270.079 280.085 294.914 248.759L377.124 145.075C389.708 129.541 396.566 123.275 409.818 123.275H409.844C425.279 123.301 438.814 131.518 438.762 158.966L438.531 258.439C438.531 265.68 436.245 270.636 422.89 272.921L413.362 274.821V288.173H520.125V274.821L510.597 272.921C497.242 270.636 494.956 265.68 494.956 258.08L495.136 161.74C495.238 106.842 468.195 90.4088 437.298 90.3574H437.247C410.742 90.3574 397.054 102.888 371.885 133.931L289.546 237.667H289.52Z" fill="black"/>
</g>
<defs>
<clipPath id="clip0_336_545">
<rect width="728" height="329" fill="white"/>
</clipPath>
</defs>
</svg>
