<svg width="153" height="153" viewBox="0 0 153 153" fill="none" xmlns="http://www.w3.org/2000/svg">
<g clip-path="url(#clip0_314_65)">
<rect x="17.1562" y="24.6649" width="120.333" height="109.25" fill="white"/>
<path d="M67.1287 68.4041C66.4912 66.4278 65.9175 64.5153 65.28 62.5391C64.6425 60.5628 64.0688 58.7141 63.5588 56.8653C63.0488 55.0803 62.6025 53.4228 62.1562 51.8928H62.0287C61.455 54.6341 60.7538 57.3753 59.8613 60.1166C58.905 63.1766 57.9488 66.3641 56.9288 69.5516C56.0363 72.8028 55.08 75.7991 54.1237 78.4766H70.3162C69.9337 77.1315 69.4238 75.5441 68.85 73.8802C68.2763 72.1653 67.7025 70.3166 67.1287 68.4041ZM125.906 1.91284H27.0938C12.1125 1.91284 0 14.0253 0 29.0066V123.994C0 138.975 12.1125 151.088 27.0938 151.088H125.906C140.887 151.088 153 138.975 153 123.994V29.0066C153 14.0253 140.887 1.91284 125.906 1.91284ZM93.7125 107.292H80.3824C79.9425 107.355 79.4962 107.037 79.3687 106.59L74.1413 91.4178H50.4262L45.5813 106.399C45.4538 106.973 44.9438 107.355 44.37 107.298H32.385C31.6837 107.298 31.4925 106.909 31.6837 106.15L52.2112 47.0478C52.4025 46.4103 52.5937 45.7091 52.8487 44.9441C53.1037 43.6053 53.2313 42.2028 53.2313 40.8003C53.1675 40.4816 53.4225 40.1628 53.7413 40.0991H70.2525C70.7625 40.0991 71.0175 40.2903 71.0812 40.6091L94.35 106.272C94.5413 106.966 94.35 107.292 93.7125 107.292ZM115.388 106.335C115.388 107.037 115.139 107.355 114.565 107.355H102.064C101.426 107.355 101.107 106.966 101.107 106.335V57.2478C101.107 56.6103 101.369 56.3553 101.943 56.3553H114.565C115.139 56.3553 115.388 56.6741 115.388 57.2478V106.335ZM114.055 48.7691C113.302 49.5337 112.394 50.1284 111.393 50.5132C110.391 50.8981 109.319 51.0642 108.247 51.0003C106.144 51.0641 104.104 50.2353 102.567 48.7691C101.107 47.1721 100.329 45.0671 100.4 42.9041C100.336 40.7366 101.165 38.6966 102.688 37.2303C104.231 35.7641 106.271 34.9991 108.375 34.9991C110.868 34.9991 112.767 35.7641 114.176 37.2303C115.579 38.7603 116.344 40.8003 116.28 42.9041C116.344 45.0716 115.579 47.1753 114.055 48.7691Z" fill="#222222"/>
</g>
<defs>
<clipPath id="clip0_314_65">
<rect width="153" height="153" fill="white"/>
</clipPath>
</defs>
</svg>
