<?xml version="1.0" encoding="utf-8"?>
<!-- Generator: Adobe Illustrator 27.9.0, SVG Export Plug-In . SVG Version: 6.00 Build 0)  -->
<svg version="1.1" id="Ebene_1" xmlns="http://www.w3.org/2000/svg" xmlns:xlink="http://www.w3.org/1999/xlink" x="0px" y="0px"
	 viewBox="0 0 691.9 220.3" style="enable-background:new 0 0 691.9 220.3;" xml:space="preserve">
<style type="text/css">
	.st0{fill:url(#SVGID_1_);stroke:#000000;stroke-width:2.5;stroke-linejoin:round;}
	
		.st1{fill:url(#SVGID_00000178900479883093833920000014175045219555502721_);stroke:#000000;stroke-width:2.5;stroke-linejoin:round;}
	
		.st2{fill:url(#SVGID_00000165225956510574987030000007850634827770401188_);stroke:#000000;stroke-width:2.5;stroke-linejoin:round;}
	
		.st3{fill:url(#SVGID_00000101080254238646278810000008890897457117491094_);stroke:#000000;stroke-width:2.5;stroke-linejoin:round;}
	
		.st4{fill:url(#SVGID_00000114048824313125923190000010206264268803180952_);stroke:#000000;stroke-width:2.5;stroke-linejoin:round;}
	
		.st5{fill:url(#SVGID_00000017489937338292887970000017055306458998290622_);stroke:#000000;stroke-width:2.5;stroke-linejoin:round;}
	.st6{fill:url(#SVGID_00000062159562665636480210000003442239643827363242_);stroke:#000000;stroke-width:3;stroke-linejoin:round;}
	.st7{fill:url(#SVGID_00000003784741684635434230000001185010870975297422_);stroke:#000000;stroke-width:3;stroke-linejoin:round;}
	.st8{fill:url(#SVGID_00000138547250687522608090000002831262081457640894_);stroke:#000000;stroke-width:3;stroke-linejoin:round;}
	.st9{fill:url(#SVGID_00000165950895414290329140000007192411972145407875_);stroke:#000000;stroke-width:3;stroke-linejoin:round;}
	
		.st10{fill:url(#SVGID_00000041992514538846361490000000414242612992467329_);stroke:#000000;stroke-width:3;stroke-linejoin:round;}
	
		.st11{fill:url(#SVGID_00000161615845165470513120000013739813019288321936_);stroke:#000000;stroke-width:3;stroke-linejoin:round;}
	
		.st12{fill:url(#SVGID_00000059278435219199018240000009412125806463392931_);stroke:#000000;stroke-width:3;stroke-linejoin:round;}
	
		.st13{fill:url(#SVGID_00000144330934054074587250000003255057379313413556_);stroke:#000000;stroke-width:3;stroke-linejoin:round;}
	
		.st14{fill:url(#SVGID_00000072968887311823180230000015320622025055739813_);stroke:#000000;stroke-width:3;stroke-linejoin:round;}
	
		.st15{fill:url(#SVGID_00000145764536048637882250000001220958341461237180_);stroke:#000000;stroke-width:3;stroke-linejoin:round;}
	
		.st16{fill:url(#SVGID_00000013877793733075504770000011826000162600070281_);stroke:#000000;stroke-width:3;stroke-linejoin:round;}
	
		.st17{fill:url(#SVGID_00000111871019209332661070000009664003447054854052_);stroke:#000000;stroke-width:3;stroke-linejoin:round;}
	
		.st18{fill:url(#SVGID_00000111182760462298657380000016580784060732792221_);stroke:#000000;stroke-width:3;stroke-linejoin:round;}
	
		.st19{fill:url(#SVGID_00000084526911574129210770000004040423340478404258_);stroke:#000000;stroke-width:3;stroke-linejoin:round;}
</style>
<g>
	<g>
		
			<linearGradient id="SVGID_1_" gradientUnits="userSpaceOnUse" x1="40.45" y1="737.9" x2="40.45" y2="693.9" gradientTransform="matrix(1 0 0 1 0 -566)">
			<stop  offset="0" style="stop-color:#FFFFFF"/>
			<stop  offset="1" style="stop-color:#FFFF01"/>
		</linearGradient>
		<path class="st0" d="M46.1,128.1c-1.6,8.5-2.7,14.1-3.2,16.8c-1.2-2.5-2.3-4.8-3.3-7s-1.8-3.8-2.4-4.8c-0.6-1-1.5-2.8-2.7-5.2
			h-9.2c1.8,4.4,3.8,8.8,6.1,13.4c2.2,4.5,3.8,7.6,4.8,9.1s2.2,3.9,3.7,6.9l-4.4,14.4l-0.2,0.2h10c1.8-5,3.3-9.9,4.6-14.6
			c1.2-4.7,2.2-9,3-12.9s1.6-9.3,2.7-16.3L46.1,128.1L46.1,128.1z"/>
		
			<linearGradient id="SVGID_00000127730229391623663410000008123477273261021349_" gradientUnits="userSpaceOnUse" x1="72.5296" y1="737.8" x2="72.5296" y2="693.6" gradientTransform="matrix(1 0 0 1 0 -566)">
			<stop  offset="0" style="stop-color:#FFFFFF"/>
			<stop  offset="1" style="stop-color:#FFFF01"/>
		</linearGradient>
		
			<path style="fill:url(#SVGID_00000127730229391623663410000008123477273261021349_);stroke:#000000;stroke-width:2.5;stroke-linejoin:round;" d="
			M91,136.2c0.2-3.5-0.1-5.8-1-6.8s-2.4-1.6-4.6-1.7s-5.5-0.1-9.9-0.1s-7.5,0-9.1,0.1s-2.8,0.4-3.7,1s-1.4,1.5-1.6,2.5
			c-0.2,1-0.5,3.5-0.9,7.4s-0.8,7.1-1.2,9.6s-0.9,4.7-1.4,6.6c-0.5,2-1.6,5.9-3.4,11.8c-0.1,0.2-0.2,0.8-0.2,1.7s0.2,1.7,0.7,2.4
			s1.7,1.1,3.5,1.1h20.3c1.1,0,2.3-0.4,3.3-1c1.1-0.7,1.9-1.5,2.6-2.4s1.3-2.4,1.8-4.4s1.1-4.4,1.8-7.1s1.2-6,1.8-9.8
			C90.3,143.3,90.8,139.7,91,136.2L91,136.2z M80.4,141c-0.3,2.1-0.6,4.3-1,6.6s-0.8,4.3-1.1,5.9s-0.7,3.1-0.9,4.3
			c-0.3,1.2-0.6,2.1-0.9,2.6s-0.6,1-1,1.4s-0.8,0.6-1.2,0.7s-1.6,0.1-3.4,0.2c-1.9,0.1-3.1,0-3.7-0.1s-1-0.4-1.1-0.8
			c-0.1-0.4-0.2-0.9-0.1-1.4s0.1-0.9,0.1-1c0.9-3.6,1.5-6,1.8-7.2s0.5-2.5,0.8-4s0.6-3.4,0.9-5.8c0.3-2.4,0.6-3.9,0.7-4.5
			s0.3-1.1,0.7-1.5s0.8-0.6,1.3-0.6s1.6-0.1,3.2-0.1s2.7,0,3.5,0.1s1.3,0.4,1.5,1C80.6,137.5,80.6,138.9,80.4,141L80.4,141z"/>
		
			<linearGradient id="SVGID_00000060709569032365055880000001705492344830889149_" gradientUnits="userSpaceOnUse" x1="108.156" y1="737.9125" x2="108.156" y2="694.2" gradientTransform="matrix(1 0 0 1 0 -566)">
			<stop  offset="0" style="stop-color:#FFFFFF"/>
			<stop  offset="1" style="stop-color:#FFFF01"/>
		</linearGradient>
		
			<path style="fill:url(#SVGID_00000060709569032365055880000001705492344830889149_);stroke:#000000;stroke-width:2.5;stroke-linejoin:round;" d="
			M126.6,128.2H117c0,3.5-0.2,6.8-0.6,9.9c-0.4,3-0.9,6.1-1.6,9.4c-0.6,3.3-1.3,6.1-1.9,8.5c-0.7,2.5-1.2,4.1-1.6,5
			s-0.9,1.4-1.6,1.6s-1.6,0.4-2.6,0.4s-2,0-2.9,0.1s-1.5-0.3-1.8-1s0-2.7,1-6s1.7-6.3,2.3-9.3s1.1-5.9,1.6-8.8
			c0.5-2.9,0.8-6.2,1-9.8H97.5c-0.6,6.4-1.2,11.6-1.8,15.5c-0.6,3.9-1.4,7.8-2.4,11.5s-2,7-3,9.7c-1,2.8-1,4.6,0.1,5.6
			c1,1,3.3,1.5,6.8,1.4s7-0.1,10.7-0.1s6.3-0.5,8.1-1.6c1.7-1,3.2-3.1,4.4-6.1s2.2-6.3,3.1-10s1.6-7,2.1-9.9s0.8-5.6,1-8.1
			S126.8,131,126.6,128.2L126.6,128.2z"/>
	</g>
	<g>
		
			<linearGradient id="SVGID_00000155852691758189048360000013205795427905109903_" gradientUnits="userSpaceOnUse" x1="36.85" y1="781.86" x2="36.85" y2="744.82" gradientTransform="matrix(1 0 0 1 0 -566)">
			<stop  offset="0" style="stop-color:#FFFFFF"/>
			<stop  offset="1" style="stop-color:#FFFF01"/>
		</linearGradient>
		
			<path style="fill:url(#SVGID_00000155852691758189048360000013205795427905109903_);stroke:#000000;stroke-width:2.5;stroke-linejoin:round;" d="
			M51.1,178.8H23v2.6l-0.4,5.5h9.2c0.1,4.1-0.9,10.3-3.1,18.5l-3.1,10.4h9.3c0.4-0.9,1-2.6,1.8-5.2s1.5-5,2-7.3s1-4.7,1.4-7.1
			c0.4-2.4,0.8-5.5,1-9.3h9.2C50.6,185,50.8,182.3,51.1,178.8L51.1,178.8z"/>
		
			<linearGradient id="SVGID_00000052803755850619156540000012643833007264360599_" gradientUnits="userSpaceOnUse" x1="65.7" y1="782.03" x2="65.7" y2="744.53" gradientTransform="matrix(1 0 0 1 0 -566)">
			<stop  offset="0" style="stop-color:#FFFFFF"/>
			<stop  offset="1" style="stop-color:#FFFF01"/>
		</linearGradient>
		
			<path style="fill:url(#SVGID_00000052803755850619156540000012643833007264360599_);stroke:#000000;stroke-width:2.5;stroke-linejoin:round;" d="
			M81.5,194.4c0.4-2.6,0.8-6.1,1.2-10.2l0.4-5.5h-9.4c0,1.5-0.1,3.4-0.3,5.6c-0.2,2.3-0.6,5.1-1.1,8.6l-7.8-0.2
			c0.4-2.7,0.7-4.9,0.8-6.6c0.2-1.7,0.4-4.2,0.7-7.6h-3.5h-6.2c-0.3,2.8-0.5,5.2-0.7,7c-0.2,1.9-0.4,4-0.7,6.4s-0.7,4.8-1.3,7.1
			s-1.1,4.6-1.8,6.8s-1.8,5.5-3.5,10h9.3c1.7-4.5,2.9-7.6,3.5-9.5c0.6-1.8,1.2-3.8,1.8-5.9l7.8,0.1c-0.5,2.3-1,4.4-1.6,6.3
			s-1.6,4.9-2.9,9h9c1.3-2.9,2.2-5.5,2.9-7.6c0.6-1.8,1.1-3.6,1.5-5.5c-0.1,0.7-0.1,0.6,0-0.1c0.1-0.4,0.2-0.7,0.3-1
			C80.6,199.5,81.1,197,81.5,194.4z"/>
		
			<linearGradient id="SVGID_00000065066819488795814710000007075487094577992072_" gradientUnits="userSpaceOnUse" x1="97.8" y1="781.85" x2="97.8" y2="744.8" gradientTransform="matrix(1 0 0 1 0 -566)">
			<stop  offset="0" style="stop-color:#FFFFFF"/>
			<stop  offset="1" style="stop-color:#FFFF01"/>
		</linearGradient>
		
			<path style="fill:url(#SVGID_00000065066819488795814710000007075487094577992072_);stroke:#000000;stroke-width:2.5;stroke-linejoin:round;" d="
			M113.7,186.5c0.4-1.8,0.7-4.4,0.8-7.7H99.2h-8.9c-0.7,4.9-1.3,8.6-1.7,11.1c-0.4,2.6-0.9,5.1-1.5,7.6s-1.3,5.1-2.2,7.9
			s-2.1,6.2-3.7,10.3l-0.1,0.2h24.4c1.1-2.6,2.2-5.2,3.1-7.7l-16-0.1c0.4-1,1.3-3.6,2.5-7.7h15.7c0.9-2.9,1.5-5.4,1.9-7.6l-15.6-0.1
			c0.3-1.7,0.6-3.7,0.9-6.2H113.7L113.7,186.5z"/>
	</g>
</g>
<g>
	
		<linearGradient id="SVGID_00000119828163976853732980000009851631063306117261_" gradientUnits="userSpaceOnUse" x1="158.2071" y1="782.1" x2="158.2071" y2="694" gradientTransform="matrix(1 0 0 1 0 -566)">
		<stop  offset="0" style="stop-color:#FFFFFF"/>
		<stop  offset="1" style="stop-color:#FFFF01"/>
	</linearGradient>
	
		<path style="fill:url(#SVGID_00000119828163976853732980000009851631063306117261_);stroke:#000000;stroke-width:3;stroke-linejoin:round;" d="
		M198.1,160.7l-42.1-0.3c0.6-4,1.1-8.9,1.5-14.7l42,0.3c0.8-4.4,1.1-10.4,0.8-18h-41.8h-23.3c-1.1,11.3-2,20-2.8,26.1
		c-0.7,6.1-1.7,12.1-2.8,18s-2.7,12.1-4.6,18.7c-1.9,6.6-3.4,11.1-4.2,13.6c-0.9,2.4-2.5,6.4-4.8,11.7h23.2
		c4.1-11,6.6-17.5,7.2-19.5c0.6-1.9,2.4-7.9,5.4-17.9H194C196,171.8,197.3,165.8,198.1,160.7L198.1,160.7z"/>
	
		<linearGradient id="SVGID_00000132803302566441631460000001461925287655623052_" gradientUnits="userSpaceOnUse" x1="235.073" y1="781.9075" x2="235.073" y2="693.4" gradientTransform="matrix(1 0 0 1 0 -566)">
		<stop  offset="0" style="stop-color:#FFFFFF"/>
		<stop  offset="1" style="stop-color:#FFFF01"/>
	</linearGradient>
	
		<path style="fill:url(#SVGID_00000132803302566441631460000001461925287655623052_);stroke:#000000;stroke-width:3;stroke-linejoin:round;" d="
		M255.9,127.5c-0.1,7.2-0.6,13.8-1.5,19.9c-1,6.1-2.2,12.4-3.7,19s-3,12.4-4.6,17.3c-1.6,5-2.9,8.3-3.8,10c-1,1.7-2.2,2.8-3.9,3.3
		s-3.7,0.7-6.2,0.7s-4.8,0.1-7,0.2c-2.2,0.1-3.6-0.6-4.4-2c-0.8-1.5,0-5.5,2.3-12c2.3-6.6,4.1-12.8,5.4-18.8
		c1.3-6,2.5-11.9,3.7-17.9c1.1-6,1.9-12.5,2.3-19.8h-24.8c-1.4,12.9-2.8,23.4-4.3,31.4c-1.4,8-3.3,15.7-5.7,23.2s-4.7,14.1-7.1,19.7
		c-2.3,5.6-2.3,9.4,0.2,11.4s7.8,2.9,16.1,2.8s16.7-0.2,25.4-0.2s15.1-1.1,19.2-3.2c4.1-2.1,7.5-6.2,10.4-12.3
		c2.8-6.1,5.3-12.8,7.5-20.3s3.8-14.1,4.9-19.9c1.1-5.8,1.9-11.3,2.5-16.4c0.5-5.1,0.6-10.5,0.2-16.2L255.9,127.5L255.9,127.5z"/>
	
		<linearGradient id="SVGID_00000037662492553477183390000002413071070144319122_" gradientUnits="userSpaceOnUse" x1="321.7" y1="781.7" x2="321.7" y2="693.6" gradientTransform="matrix(1 0 0 1 0 -566)">
		<stop  offset="0" style="stop-color:#FFFFFF"/>
		<stop  offset="1" style="stop-color:#FFFF01"/>
	</linearGradient>
	
		<path style="fill:url(#SVGID_00000037662492553477183390000002413071070144319122_);stroke:#000000;stroke-width:3;stroke-linejoin:round;" d="
		M359.3,127.6h-74v6.2l-1.2,13.1h24.4c0.4,9.8-2.3,24.5-8.1,44l-8.2,24.8h24.5c1-2.2,2.5-6.3,4.7-12.4c2.1-6.1,3.9-11.9,5.4-17.4
		s2.7-11.1,3.8-16.8c1.1-5.7,2-13.1,2.7-22.1h24.4C358.1,142.4,358.7,135.9,359.3,127.6L359.3,127.6z"/>
	
		<linearGradient id="SVGID_00000008145342078227297990000014009733584360725949_" gradientUnits="userSpaceOnUse" x1="390.523" y1="781.8074" x2="390.523" y2="693.3" gradientTransform="matrix(1 0 0 1 0 -566)">
		<stop  offset="0" style="stop-color:#FFFFFF"/>
		<stop  offset="1" style="stop-color:#FFFF01"/>
	</linearGradient>
	
		<path style="fill:url(#SVGID_00000008145342078227297990000014009733584360725949_);stroke:#000000;stroke-width:3;stroke-linejoin:round;" d="
		M431.6,160c1.1-5.8,1.9-11.3,2.5-16.4c0.5-5.1,0.6-10.5,0.2-16.2h-22.8c-0.1,7.2-0.6,13.8-1.5,19.9c-1,6.1-2.2,12.4-3.7,19
		s-3,12.4-4.6,17.3c-1.6,5-2.9,8.3-3.8,10c-1,1.7-2.2,2.8-3.9,3.3s-3.7,0.7-6.2,0.7s-4.8,0.1-7,0.2c-2.2,0.1-3.6-0.6-4.4-2
		c-0.8-1.5,0-5.5,2.3-12c2.3-6.6,4.1-12.8,5.4-18.8s2.5-11.9,3.7-17.9c1.1-6,1.9-12.5,2.3-19.8h-24.8c-1.4,12.9-2.8,23.4-4.3,31.4
		s-3.3,15.7-5.7,23.2s-4.7,14.1-7.1,19.7c-2.3,5.6-2.3,9.4,0.2,11.4s7.8,2.9,16.1,2.8s16.7-0.2,25.4-0.2s15.1-1.1,19.2-3.2
		c4.1-2.1,7.5-6.2,10.4-12.3c2.8-6.1,5.3-12.8,7.5-20.3S430.4,165.9,431.6,160L431.6,160z"/>
	
		<linearGradient id="SVGID_00000121246689373734642890000013911420206721183392_" gradientUnits="userSpaceOnUse" x1="465.1167" y1="782.6" x2="465.1167" y2="692.4" gradientTransform="matrix(1 0 0 1 0 -566)">
		<stop  offset="0" style="stop-color:#FFFFFF"/>
		<stop  offset="1" style="stop-color:#FFFF01"/>
	</linearGradient>
	
		<path style="fill:url(#SVGID_00000121246689373734642890000013911420206721183392_);stroke:#000000;stroke-width:3;stroke-linejoin:round;" d="
		M501.9,171.9c1.9-2.8,3.2-5.1,3.9-6.9c0.7-1.8,1.5-5.2,2.5-10.3c1-5,1.8-9.6,2.3-13.8c0.5-4.1-0.4-7.5-2.8-10s-12.2-4-29.4-4.5
		h-33.3c-0.4,5.8-1.1,12.3-2.4,19.4c-1.2,7.2-2.8,14.1-4.6,20.9c-1.9,6.8-4,13.6-6.6,20.6s-6.6,16.5-12,28.9h26.4
		c4.6-10.8,7.3-17.2,8.1-19.1c0.8-1.9,1.8-4.8,3-8.6c4.7,5,7.9,9.1,9.6,12.5s3.1,8.6,4.1,15.6h26c-1.8-13.9-5-25.7-9.8-35.5
		C494.9,177.7,499.9,174.7,501.9,171.9L501.9,171.9z M485.3,151.6c-1.1,4-1.8,6.7-2.2,7.9c-0.4,1.3-1.2,2.7-2.3,4.2
		c-1.2,1.6-2.9,2.6-5.2,3.2c-2.3,0.6-7,0.8-14.2,0.8c0.5-1.1,1.3-4,2.7-8.6s2.4-9.8,3.4-15.7c8.6-0.2,14,0,16.2,0.8
		C485.8,145.2,486.4,147.6,485.3,151.6L485.3,151.6z"/>
	
		<linearGradient id="SVGID_00000020389572270312752750000002598901852866713503_" gradientUnits="userSpaceOnUse" x1="542.65" y1="782.68" x2="542.65" y2="694.48" gradientTransform="matrix(1 0 0 1 0 -566)">
		<stop  offset="0" style="stop-color:#FFFFFF"/>
		<stop  offset="1" style="stop-color:#FFFF01"/>
	</linearGradient>
	
		<path style="fill:url(#SVGID_00000020389572270312752750000002598901852866713503_);stroke:#000000;stroke-width:3;stroke-linejoin:round;" d="
		M584.5,147c1.1-4.4,1.8-10.5,2.2-18.4h-40.4h-23.6c-1.8,11.5-3.3,20.4-4.5,26.5s-2.5,12.1-4,18s-3.4,12.1-5.7,18.7
		s-5.6,14.8-9.7,24.6l-0.2,0.4h64.5c3-6.1,5.7-12.3,8.2-18.4l-42.2-0.3c1.2-2.5,3.3-8.6,6.5-18.3H577c2.2-6.8,3.9-12.8,5-18
		l-41.2-0.3c0.8-4,1.6-8.9,2.5-14.7L584.5,147L584.5,147z"/>
</g>
<g>
	
		<linearGradient id="SVGID_00000168101121871112686980000008673462407692167561_" gradientUnits="userSpaceOnUse" x1="55.6391" y1="571.4" x2="55.6391" y2="682.8" gradientTransform="matrix(1 0 0 1 0 -566)">
		<stop  offset="0" style="stop-color:#FFFFFF"/>
		<stop  offset="1" style="stop-color:#FFFF01"/>
	</linearGradient>
	
		<path style="fill:url(#SVGID_00000168101121871112686980000008673462407692167561_);stroke:#000000;stroke-width:3;stroke-linejoin:round;" d="
		M102.5,74.5c-1.3-4.6-2.7-8.5-4.2-11.8c-1.5-3.2-3.3-5.9-5.3-8.1c-2-2.1-4.9-4.2-8.6-6c3.4-3.4,4.9-7.4,4.6-12
		c-0.4-4.6-1-8.6-2-11.9c-1-3.4-2.5-6.6-4.6-9.6c-2-3.1-5.2-5.4-9.4-6.9c-4.3-1.5-19.3-2.4-45.3-2.8L4.9,5.8c2,5.8,4,11.9,6.1,18.2
		s4.1,12.9,5.8,19.8c1.8,6.9,3.4,13.8,4.9,20.5s2.6,13.1,3.2,18.9s1.4,16.7,2.3,32.7l1.1,0.9h40.5c13.5,0,21.7-0.1,24.6-0.5
		c2.9-0.3,5.6-1.9,8-4.6c2.4-2.8,4-5.6,4.6-8.5s0.5-7.2-0.4-13.1S103.8,79.1,102.5,74.5L102.5,74.5z M43.1,42
		c-1.2-4.5-2.4-8.4-3.8-11.7c-1.3-3.3-2.1-5.2-2.2-5.8c-0.1-0.5,2.5-0.7,7.7-0.6s9.1,0.4,11.7,0.8c2.5,0.4,4.4,1.2,5.7,2.4
		s2.1,2.8,2.5,4.8c0.3,2-0.1,3.8-1.4,5.4c-1.3,1.6-2.8,2.9-4.5,3.7S51.9,42.3,43.1,42L43.1,42z M78.4,90.4c-0.4,3.2-2.7,4.9-7,5.2
		C67.1,95.9,61.1,96,53.5,96c-1.1-8-2-14.4-2.8-19.3s-1.3-7.5-1.5-7.9s1.7-0.7,5.6-0.9c4-0.1,7.8,0,11.4,0.4s6.2,1.6,7.7,3.5
		s2.7,4.7,3.6,8.3C78.5,83.9,78.8,87.3,78.4,90.4L78.4,90.4z"/>
	
		<linearGradient id="SVGID_00000103950642661637573890000016233895301244141213_" gradientUnits="userSpaceOnUse" x1="149.1173" y1="570.4" x2="149.1173" y2="682.5" gradientTransform="matrix(1 0 0 1 0 -566)">
		<stop  offset="0" style="stop-color:#FFFFFF"/>
		<stop  offset="1" style="stop-color:#FFFF01"/>
	</linearGradient>
	
		<path style="fill:url(#SVGID_00000103950642661637573890000016233895301244141213_);stroke:#000000;stroke-width:3;stroke-linejoin:round;" d="
		M193.2,62.5c-2-8.4-4.4-16.3-7.1-23.7c-2.7-7.4-5.3-13.6-7.9-18.6s-5.4-9.7-8.3-14.4c-18.1-0.9-31.9-1.4-41.4-1.4
		s-15.9,0.1-19.1,0.2c-3.2,0.2-6.4,2.3-9.4,6.3s-3.6,9.6-1.6,16.8c2,7.1,4,14.3,6.1,21.4s3.8,14.1,5.1,20.9s2.4,13.7,3.3,20.7
		s1.6,15.6,2,25.8h28.6l-0.1-15.8l-1.9-14.9l27.8,0.4l1.9,9.8l2.1,20.5H201c-0.8-12.4-1.8-22.4-3-30
		C196.8,78.8,195.2,70.9,193.2,62.5L193.2,62.5z M136.5,62.9c-4.6-14.9-7.2-24.1-7.8-27.9c-0.6-3.7-0.4-6.5,0.6-8.3
		c1-1.9,8.5-2.3,22.5-1.4c3.5,8.7,6,14.8,7.4,18.4s3,10,5,19.3L136.5,62.9L136.5,62.9z"/>
	
		<linearGradient id="SVGID_00000053531242667950774250000008644677035126667188_" gradientUnits="userSpaceOnUse" x1="239.5099" y1="571.1" x2="239.5099" y2="682.65" gradientTransform="matrix(1 0 0 1 0 -566)">
		<stop  offset="0" style="stop-color:#FFFFFF"/>
		<stop  offset="1" style="stop-color:#FFFF01"/>
	</linearGradient>
	
		<path style="fill:url(#SVGID_00000053531242667950774250000008644677035126667188_);stroke:#000000;stroke-width:3;stroke-linejoin:round;" d="
		M287,91.1h-37.7c-3.8,0-6.8-0.9-8.8-2.6s-3.3-3-3.8-3.9c-0.5-0.8-1-2.2-1.6-4.2c-0.6-1.9-1.3-5-2.1-9.1s-2-9.2-3.5-15.3
		s-2.6-11-3.4-14.9c-0.8-3.9-1.1-6.6-0.9-8.1s0.8-2.6,1.7-3.2s4.9-0.9,12.2-0.9s17.8,0.2,31.6,0.5l-0.6-2.8l-1.1-3.9l-5.9-16.4
		c-15-0.6-27.6-1-37.6-1.2s-17.4-0.2-22.1,0c-4.7,0.2-8.4,1.7-10.9,4.7s-3.6,5.4-3.2,7.5s0.9,3.8,1.3,5.4c0.5,1.6,1.2,4.3,2.4,8.1
		c1.1,3.9,2.5,8.9,4.2,14.9c1.7,6.1,3.4,13.6,5.3,22.4c1.9,8.9,3.3,16.5,4.3,22.9c0.9,6.4,1.9,11,3,13.8c1,2.8,3.5,5.4,7.3,7.9
		s6.9,3.8,9.2,3.8h63.5l-1.3-17L287,91.1L287,91.1z"/>
	
		<linearGradient id="SVGID_00000138563136725235006050000013029034383438546350_" gradientUnits="userSpaceOnUse" x1="333.15" y1="571.5" x2="333.15" y2="682.8" gradientTransform="matrix(1 0 0 1 0 -566)">
		<stop  offset="0" style="stop-color:#FFFFFF"/>
		<stop  offset="1" style="stop-color:#FFFF01"/>
	</linearGradient>
	
		<path style="fill:url(#SVGID_00000138563136725235006050000013029034383438546350_);stroke:#000000;stroke-width:3;stroke-linejoin:round;" d="
		M385.2,98.2c-3.4-5.1-7-10.2-10.9-15.1S362,70.7,349.1,60.8l19.8-55.3H337l-15.6,44.2c-1.9-6.2-3.9-12.2-6.1-18.1
		c-2.1-5.9-5.7-14.6-10.6-26h-32.4c3.1,7.1,6.1,15.3,9,24.6s5.6,18.3,8.1,27s4.2,17.3,5.3,25.8c1,8.5,1.9,19.6,2.7,33.3l0.5,0.5
		h31.9c-0.4-8.4-0.8-15-1.3-19.8s-1.5-11.7-3.1-20.7l7.3,5.6c0.1,0.1,1.4,1.3,3.8,3.5c2.8,2.6,6.5,6.4,11,11.4s8.9,11.6,13.2,20H394
		C391.5,109.5,388.6,103.3,385.2,98.2L385.2,98.2z"/>
</g>
<linearGradient id="SVGID_00000124124898636643856630000001575811967514336938_" gradientUnits="userSpaceOnUse" x1="528.3177" y1="582.5" x2="528.3177" y2="782.7" gradientTransform="matrix(1 0 0 1 0 -566)">
	<stop  offset="0" style="stop-color:#FFFFFF"/>
	<stop  offset="0.59" style="stop-color:#FFFF01"/>
	<stop  offset="1" style="stop-color:#FFFFFF"/>
</linearGradient>
<path style="fill:url(#SVGID_00000124124898636643856630000001575811967514336938_);stroke:#000000;stroke-width:3;stroke-linejoin:round;" d="
	M389.5,17.3c10.6,0.4,177.3,0.4,200.1-0.1s37.5-0.4,44.2,0.3c6.7,0.7,12.7,2.3,18.2,4.9s9.2,5.8,11.3,9.5s5.2,10.1,9.1,19.1
	s7.6,20.2,11.2,33.6s5.2,22.3,4.9,26.9c-0.3,4.5-0.8,7.8-1.7,9.9c-0.8,2.1-4.5,4.2-11.1,6.2h-33.4l0.5,36.6h-41.4
	c1.9-36.9-1.9-48.5-8.4-69.6h52.9c-3.4-12.6-8.6-26.9-15.5-42.6H368.1l12.4-35.5L389.5,17.3L389.5,17.3z M627.8,216.7h-39.6
	c0,0,11.2-15.1,13.5-32.4c8.3,0,27.1-0.2,38.8-0.2C639.7,205.4,627.8,216.7,627.8,216.7L627.8,216.7z"/>
<g>
	
		<linearGradient id="SVGID_00000163764521049828734280000001908384457909795508_" gradientUnits="userSpaceOnUse" x1="420.6971" y1="627.4281" x2="420.6971" y2="681.4281" gradientTransform="matrix(1 0 0 1 0 -566)">
		<stop  offset="0" style="stop-color:#FFFFFF"/>
		<stop  offset="1" style="stop-color:#FFFF01"/>
	</linearGradient>
	
		<path style="fill:url(#SVGID_00000163764521049828734280000001908384457909795508_);stroke:#000000;stroke-width:3;stroke-linejoin:round;" d="
		M429.7,62.1c1.5,2.2,2.9,4.5,4.2,6.9s2.7,5.4,4.1,9s2.7,7.4,3.8,11.4c1.1,4,2,7.9,2.7,11.5s1.4,8.5,2,14.4h-13.4l-1.4-9.9l-1.1-4.7
		l-13.4-0.2l1.1,7.2l0.3,7.6H405c-0.4-4.9-0.8-9.1-1.4-12.4c-0.6-3.4-1.2-6.7-1.9-10c-0.7-3.3-1.6-6.6-2.8-10.1s-2.2-6.9-3.3-10.3
		s-0.9-6.1,0.5-8.1c1.4-1.9,2.9-2.9,4.4-3s4.6-0.1,9.2-0.1C414.3,61.4,420.9,61.7,429.7,62.1L429.7,62.1z M427.9,89.6
		c-1.1-4.5-2-7.6-2.7-9.3s-2-4.6-3.9-8.8c-6.8-0.4-10.4-0.2-10.8,0.7c-0.4,0.9-0.5,2.2-0.1,4s1.8,6.2,4.2,13.4L427.9,89.6
		L427.9,89.6z"/>
	
		<linearGradient id="SVGID_00000024682784888933692570000007022522883965002368_" gradientUnits="userSpaceOnUse" x1="468.8426" y1="627.88" x2="468.8426" y2="681.44" gradientTransform="matrix(1 0 0 1 0 -566)">
		<stop  offset="0" style="stop-color:#FFFFFF"/>
		<stop  offset="1" style="stop-color:#FFFF01"/>
	</linearGradient>
	
		<path style="fill:url(#SVGID_00000024682784888933692570000007022522883965002368_);stroke:#000000;stroke-width:3;stroke-linejoin:round;" d="
		M454.2,115.2c-0.5-6.7-1.2-12.2-1.9-16.5c-0.7-4.3-1.8-8.6-3.1-12.9c-1.3-4.3-2.6-8.3-3.8-11.9s-2.4-6.5-3.5-8.7
		c-1.1-2.2-1.5-3.4-1.4-3.4h12.4l25.3,27.8c-2.2-7.5-4-13.2-5.6-17.1s-3.2-7.5-4.8-10.6h15c3.1,7,5.1,11.8,6.1,14.3s2,5.6,3.1,9.1
		s2.1,8.2,3.2,14s1.7,11.2,2,16.1h-11.7l-19.1-20c0.7,6.7,1.2,10.9,1.5,12.7c0.3,1.8,0.5,4.2,0.6,7.4h-14.2L454.2,115.2L454.2,115.2
		z"/>
	
		<linearGradient id="SVGID_00000117651284183880709390000017684473672030689428_" gradientUnits="userSpaceOnUse" x1="520.05" y1="627.9" x2="520.05" y2="681.7" gradientTransform="matrix(1 0 0 1 0 -566)">
		<stop  offset="0" style="stop-color:#FFFFFF"/>
		<stop  offset="1" style="stop-color:#FFFF01"/>
	</linearGradient>
	
		<path style="fill:url(#SVGID_00000117651284183880709390000017684473672030689428_);stroke:#000000;stroke-width:3;stroke-linejoin:round;" d="
		M492.3,62.5l-0.4-0.6h16.6c12.1,0.4,18.7,0.8,19.9,1.1s2.2,0.8,3.2,1.4c0.9,0.7,1.9,1.7,3,3.1c1,1.4,2.2,3.2,3.3,5.2
		c1.2,2.1,2.4,4.9,3.7,8.4c1.3,3.6,2.6,7.7,3.9,12.6c1.2,4.8,2,7.9,2.3,9.2c0.3,1.3,0.4,2.6,0.4,3.7c-0.1,1.1-0.2,2.3-0.5,3.5
		s-0.8,2.1-1.6,2.9s-1.9,1.3-3.3,1.8c-1.5,0.4-13.4,0.7-35.8,0.9c-0.7-6.5-1.5-11.3-2.3-14.5s-1.6-6.6-2.5-10
		c-0.9-3.5-2.2-7.5-3.8-12C496.7,74.6,494.7,69.1,492.3,62.5L492.3,62.5z M520.2,103.5c6.8,0,10.6-0.1,11.4-0.4s1.3-0.8,1.6-1.5
		c0.3-0.8,0.1-2.4-0.6-4.9c-0.7-2.5-1.3-5-2-7.4s-1.6-4.8-2.7-7.2c-1.1-2.3-2.1-4.2-2.9-5.5c-0.8-1.3-1.7-2.3-2.6-3.1
		c-0.9-0.8-2.3-1.2-4.1-1.4s-4.7-0.2-8.8-0.2c1.6,3.2,2.7,5.6,3.5,7.2c0.7,1.6,1.5,3.4,2.2,5.2c0.7,1.9,1.4,3.9,2.2,6.3
		s1.4,4.5,1.9,6.6C519.7,99.4,520,101.4,520.2,103.5L520.2,103.5z"/>
</g>
</svg>
