<svg width="246" height="247" viewBox="0 0 246 247" fill="none" xmlns="http://www.w3.org/2000/svg">
<g clip-path="url(#clip0_341_587)">
<path d="M85.4767 161.002C84.2411 156.474 83.3155 151.578 85.044 147.215C87.5529 140.902 95.359 137.715 101.975 139.108C108.651 140.492 114.047 145.598 117.41 151.562C120.761 157.466 122.442 164.163 124.051 170.812C125.649 158.977 133.987 149.95 144.397 144.18C148.612 141.876 156.072 140.623 160.725 141.863C165.955 143.189 169.182 148.74 169.505 154.116C169.768 159.503 167.683 164.679 165.292 169.535C160.331 179.652 152.841 189.59 144.29 198.467C138.001 204.947 131.242 210.885 123.941 216.231C111.577 208.794 88.4286 171.722 85.4767 161.002Z" stroke="#523031" stroke-width="7.0018" stroke-miterlimit="4.001" stroke-linecap="round" stroke-linejoin="round"/>
<path d="M186.09 73.5684C180.75 67.0161 177.028 64.6749 169.529 60.7515C162.03 56.828 152.746 55.5299 144.993 59.0202C143.262 59.8251 141.513 60.8829 140.568 62.6107C139.884 64.0427 139.606 65.653 139.834 67.299C140.538 74.4813 146.394 80.0682 152.147 84.362C165.527 94.3676 180.703 101.808 196.801 106.339C205.699 92.3425 213.809 80.6084 218.503 64.7306C219.523 61.3035 220.449 57.7054 219.941 54.1107C219.432 50.516 218.1 45.4426 212.065 43.4467C210.006 42.7482 205.211 43.5313 203.155 44.2684C198.035 46.0455 193.795 49.978 191.13 54.6945C186.105 63.3865 186.525 70.3693 186.09 73.5684Z" stroke="#523031" stroke-width="7" stroke-linecap="round" stroke-linejoin="round"/>
<path d="M27.9013 60.4324C26.4591 55.441 25.4694 50.1825 26.1186 45.0097C26.7677 39.8369 28.8455 33.9126 33.5983 31.8256C35.6326 30.9673 40.6131 31.5879 43.3805 36.6578C46.7855 42.8643 51.6361 54.4363 52.4075 66.6027C52.8115 56.8519 55.6344 47.3616 60.7229 39.0329C62.5153 36.094 65.0345 33.027 68.4796 32.7318C72.2382 32.4437 75.5046 35.7396 76.5194 39.37C77.4737 43.0111 76.6502 46.8408 75.7947 50.4888C73.7486 58.7181 71.1753 66.7906 68.064 74.6457C65.9899 79.8824 61.449 94.859 56.5963 98.1501C50.126 102.538 30.1375 68.1565 27.9013 60.4324Z" stroke="#523031" stroke-width="7" stroke-linecap="round" stroke-linejoin="round"/>
</g>
<defs>
<clipPath id="clip0_341_587">
<rect width="246" height="246" fill="white" transform="translate(0 0.859863)"/>
</clipPath>
</defs>
</svg>
