<svg width="248" height="247" viewBox="0 0 248 247" fill="none" xmlns="http://www.w3.org/2000/svg">
<path d="M39.8048 124.935C35.9967 122.943 32.3691 120.201 25.0093 115.51" stroke="#2D4D5A" stroke-width="7.00163" stroke-miterlimit="4.0005" stroke-linecap="round" stroke-linejoin="round"/>
<path d="M62.1076 103.654L48.5251 90.4099" stroke="#2D4D5A" stroke-width="7.00163" stroke-miterlimit="4.0005" stroke-linecap="round" stroke-linejoin="round"/>
<path d="M90.1023 85.3714C86.5362 80.7074 83.0459 76.0871 81.8997 71.866" stroke="#2D4D5A" stroke-width="7.00163" stroke-miterlimit="4.0005" stroke-linecap="round" stroke-linejoin="round"/>
<path d="M123.398 75.49C121.738 70.0699 121.276 64.8414 121.053 59.5498" stroke="#2D4D5A" stroke-width="7.00163" stroke-miterlimit="4.0005" stroke-linecap="round" stroke-linejoin="round"/>
<path d="M154.42 75.2662C156.701 70.7092 158.18 65.7903 158.725 60.7355" stroke="#2D4D5A" stroke-width="7.00163" stroke-miterlimit="4.0005" stroke-linecap="round" stroke-linejoin="round"/>
<path d="M185.976 82.2843C190.866 78.8206 194.541 73.9542 196.61 68.3632" stroke="#2D4D5A" stroke-width="7.00163" stroke-miterlimit="4.0005" stroke-linecap="round" stroke-linejoin="round"/>
<path d="M211.547 96.8777C215.808 94.1528 219.651 90.8352 223.006 87.1355" stroke="#2D4D5A" stroke-width="7.00163" stroke-miterlimit="4.0005" stroke-linecap="round" stroke-linejoin="round"/>
<path d="M173.08 93.624C186.568 97.7243 199.312 104.513 209.779 114.012C214.294 118.121 218.703 123.728 217.513 129.729C216.845 133.164 214.313 135.878 212.08 138.513C175.437 181.298 137.444 196.712 93.1995 183.942C76.5718 179.138 51.915 162.722 46.2898 156.414C33.103 141.629 56.1111 123.916 91.7437 100.054C114.873 84.6737 146.437 85.4635 173.08 93.624Z" stroke="#2D4D5A" stroke-width="7.00163" stroke-miterlimit="4.0005" stroke-linecap="round" stroke-linejoin="round"/>
<path d="M77.0073 132.036C76.9008 140.364 77.1407 149.494 82.4803 155.935C85.1582 159.185 88.8809 161.329 92.6261 163.084C108.307 170.558 125.913 172.862 142.915 169.644C152.463 167.759 161.926 163.916 168.24 156.501C174.701 148.92 177.332 138.329 176.828 127.992C176.324 117.655 173.016 107.613 168.833 98.1205C168.016 96.2936 167.107 94.3634 165.594 93.0397C163.945 91.6881 161.832 91.225 159.752 90.8811C126.605 85.152 77.395 89.1598 77.0073 132.036Z" stroke="#2D4D5A" stroke-width="7.00163" stroke-miterlimit="4.0005" stroke-linecap="round" stroke-linejoin="round"/>
<path d="M110.08 121.887C106.543 128.442 107.353 137.551 113.126 142.282C116.593 145.133 121.057 145.996 125.632 145.617C128.947 145.315 132.192 144.521 135.323 143.31C140.243 141.371 145.013 138.641 148.48 134.66C169.742 110.328 122.893 98.0659 110.08 121.887Z" stroke="#2D4D5A" stroke-width="7.00163" stroke-miterlimit="4.0005" stroke-linecap="round" stroke-linejoin="round"/>
</svg>
