<svg width="252" height="252" viewBox="0 0 252 252" fill="none" xmlns="http://www.w3.org/2000/svg">
<path d="M138.362 204.494C128.867 200.743 118.177 192.593 109.531 187.202C90.3608 175.287 72.387 167.771 47.0101 150.632C44.1993 148.741 40.0221 143.489 41.4952 140.43C44.6292 133.842 62.0842 130.079 77.2677 140.33C84.2946 145.059 93.1009 150.681 99.5419 147.691C108.374 140.944 89.3115 122.165 80.3312 113.523C74.0806 107.545 68.8783 103.133 63.7837 98.1349C57.5866 92.0859 45.244 81.2489 48.8425 73.455C51.0749 68.5781 60.998 71.3179 65.4647 73.2323C69.9314 75.1468 77.6428 80.6678 81.2797 83.9027C94.2533 95.603 97.2328 97.788 114.852 117.149C104.644 107.917 94.5996 96.2523 84.882 86.4449C75.2355 76.6909 68.6644 70.694 62.1762 62.5928C59.0921 58.7736 54.037 50.9167 59.3042 46.822C66.3986 41.268 92.2 60.5035 104.052 72.36C114.134 82.4972 121.484 91.7466 133 101.24C121.814 91.3836 113.477 81.0033 103.157 69.1871C97.761 62.963 83.618 47.05 91.0664 43.0954C97.098 39.9089 113.732 50.5286 118.596 55.2414C129.559 65.7632 134.325 70.236 151.822 87.3939C143.661 79.1454 137.599 71.8092 131.87 61.8901C128.335 55.7873 125.999 45.1419 130.784 42.129C136.389 38.6215 150.803 58.2383 152.634 59.949C175.787 82.4705 181.61 95.2937 196.862 120.374C205.905 135.285 214.376 158.711 209.281 173.435C195.757 212.543 166.347 215.371 138.362 204.494Z" stroke="#34523A" stroke-width="7" stroke-linecap="round" stroke-linejoin="round"/>
<path d="M190.081 141.352C196.337 151.002 195.414 162.857 187.675 171.415" stroke="#34523A" stroke-width="7" stroke-linecap="round" stroke-linejoin="round"/>
</svg>
