<svg width="247" height="249" viewBox="0 0 247 249" fill="none" xmlns="http://www.w3.org/2000/svg">
<path d="M55.0192 165.346C46.7447 161.316 41.7429 151.458 43.4102 142.344" stroke="#41314C" stroke-width="6" stroke-linecap="round" stroke-linejoin="round"/>
<path d="M68.6043 162.866C55.0193 157.224 50.0176 138.376 52.4876 125.046" stroke="#41314C" stroke-width="6" stroke-linecap="round" stroke-linejoin="round"/>
<path d="M103.802 51.5759C106.21 69.3699 108.063 89.3959 97.071 103.532C91.9458 110.104 86.3265 109.67 78.3608 118.164C72.6798 124.24 68.3573 132.92 73.112 143.336C77.1875 152.326 89.2288 154.868 92.0693 156.17C105.963 162.556 115.905 175.266 124.673 187.852C127.823 192.378 130.972 197.152 135.541 200.314C144.125 206.39 155.981 207.568 166.046 204.592C173.271 202.422 180.866 206.824 188.523 204.778C190.622 204.22 197.785 202.112 197.785 194.052C197.785 190.952 195.501 187.976 191.178 186.674C185.374 184.876 179.26 187.294 173.085 185C167.898 183.14 163.144 179.978 159.747 175.638C150.608 164.106 146.78 149.288 145.792 134.532C144.186 110.538 153.819 79.5999 160.612 57.0939C161.044 55.6059 161.106 54.6759 161.106 53.0639C161.106 50.2739 157.771 48.8479 155.054 48.2279C141.469 45.1279 108.618 45.4999 106.581 46.5539C104.605 47.4839 103.493 49.3439 103.802 51.5759Z" stroke="#41314C" stroke-width="6" stroke-miterlimit="10" stroke-linecap="round"/>
<path d="M107.569 110.476C105.963 114.382 106.642 119.28 109.298 122.752C111.953 126.224 116.522 128.022 120.66 127.34" stroke="#41314C" stroke-width="6" stroke-miterlimit="10" stroke-linecap="round"/>
<path d="M194.821 188.41C196.365 187.046 196.427 180.102 189.758 179.668C185.991 179.42 182.039 178.986 180.063 178.924C174.32 178.8 168.948 178.986 164.44 180.102" stroke="#41314C" stroke-width="6" stroke-miterlimit="10" stroke-linecap="round"/>
<path d="M186.361 177.87C186.547 176.754 187.164 174.646 184.756 173.034C182.224 171.298 176.173 173.282 171.541 173.344C165.49 173.468 162.032 174.77 160.118 175.08" stroke="#41314C" stroke-width="6" stroke-miterlimit="10" stroke-linecap="round"/>
<path d="M176.482 172.29C177.47 170.74 175.741 167.764 172.097 167.888C167.034 168.012 162.835 168.57 157.216 169.81" stroke="#41314C" stroke-width="6" stroke-miterlimit="10" stroke-linecap="round"/>
<path d="M164.07 167.764C164.317 167.206 164.193 166.462 163.885 165.904C163.576 165.346 163.082 164.974 162.588 164.664C160.365 163.362 157.586 163.3 155.363 164.602" stroke="#41314C" stroke-width="6" stroke-miterlimit="10" stroke-linecap="round"/>
</svg>
