<?xml version="1.0" encoding="UTF-8"?>
<svg id="Ebene_2" data-name="Ebene 2" xmlns="http://www.w3.org/2000/svg" viewBox="0 0 160.75 90.07">
  <defs>
    <style>
      .cls-1, .cls-2, .cls-3 {
        stroke: #000;
        stroke-miterlimit: 10;
      }

      .cls-2 {
        fill: #fff;
      }

      .cls-3 {
        fill: none;
      }
    </style>
  </defs>
  <g id="Ebene_2-2" data-name="Ebene 2">
    <g>
      <path class="cls-1" d="m126.81,71.98s6.88-4.43,8.71-5.65,14.67-8.41,14.98-18.49-5.04-21.09-21.4-22.77-31.79,1.22-43.86,3.97-27.32,5.8-28.27-3.06c-.46-4.28,8.1-9.02,8.71-12.38s.76-7.34-10.55-5.65-25.06,10.09-29.5,17.12-15.13,21.85-16.05,29.19l-6.72,6.72s1.68-7.34,5.04-16.2,14.06-25.37,22.47-31.64S59.87-.47,67.82.6s7.79,10.24,2.6,16.2-8.41,9.02,3.67,7.64c12.07-1.38,29.8-7.34,39.43-8.41s27.61-2.41,40.65,10.85c9.32,9.48,5.5,24.76,4.13,27.66-2.7,5.71-11.09,13.51-18.8,15.89-6.42,1.99-10.85,6.42-14.21,10.24l1.53-8.71Z"/>
      <path class="cls-1" d="m77.35,75.51s-5.35-4.22-12.35-4.63-12.87,2.88-12.87,2.88l-1.13-6.49s5.77-3.6,11.32-3.19,11.43,1.44,17.19,5.77l-2.16,5.66Z"/>
      <path class="cls-2" d="m77.51,73.31c.44-3.62,3.99-8.38,8.18-10.98s14.77-4.99,22.75-3.99,18.16,2.99,19.76,13.97-10.78,15.17-13.17,15.97-14.97,2.99-24.15-1.2-14.17-7.18-13.37-13.77Z"/>
      <path class="cls-2" d="m51.96,70.32c-.34-7.08-10.34-14.99-17.96-17.96-4.32-1.69-22.23-2.59-28.72,4.72C-.08,63.13.02,68.15,1.06,71.6c1.62,5.34,7.02,9.52,17.4,11.12s21.53,1.77,25.92-.22,7.98-3.79,7.58-12.17Z"/>
      <path class="cls-2" d="m82.1,73.31c-.77-4.79,12.57-8.78,15.97-9.38s19.76-.8,22.75,4.19.8,10.98-1.2,12.97-14.37,4.99-22.35,2.39-14.37-5.19-15.17-10.18Z"/>
      <path class="cls-3" d="m107.24,70.12s4.59,1.8,6.19,3.59"/>
      <path class="cls-3" d="m111.63,67.72s3.19,1.2,3.79,3.19"/>
      <path class="cls-2" d="m46.17,72.31c.39-3.59-4.79-10.58-10.78-12.97-5.99-2.39-17.96-4.19-25.75.4s-5.19,16.37,5.79,18.36,19.56,2.39,21.95,1.8,8.18-2,8.78-7.58Z"/>
      <path class="cls-3" d="m28.01,62.93s4.99,2.79,5.79,4.19"/>
      <path class="cls-3" d="m33.4,62.73s4.59,2.2,4.99,3.19"/>
    </g>
  </g>
</svg>