<?xml version="1.0" encoding="utf-8"?>
<!-- Generator: Adobe Illustrator 27.9.0, SVG Export Plug-In . SVG Version: 6.00 Build 0)  -->
<svg version="1.1" id="Ebene_1" xmlns="http://www.w3.org/2000/svg" xmlns:xlink="http://www.w3.org/1999/xlink" x="0px" y="0px"
	 viewBox="0 0 210.8 115.3" style="enable-background:new 0 0 210.8 115.3;" xml:space="preserve">
<g>
	<path d="M0,13.9V6.4l45.9-4.5c0,0.3,0.1,0.5,0.1,0.7c0,1.1,0,2.2,0,3.3c0,23.5,0,47,0,70.5c0,2.6,0.2,5.1,0.8,7.7
		c0.4,1.6,0.9,3.2,1.7,4.7c1,2.1,2.5,3.8,4.4,5.1s4,2.1,6.3,2.4c2.5,0.4,5,0.3,7.4-0.2c3-0.8,5.8-2.5,7.9-4.7
		c2.5-2.6,4.9-5.3,7.1-8.2c15.2-19.1,30.3-38.1,45.5-57.2c3.6-4.7,7.5-9.1,11.7-13.4c2.3-2.4,4.9-4.5,7.7-6.4
		c4.3-2.9,9.4-4.5,14.6-4.8c4.7-0.4,9.3,0.1,13.8,1.3c3.8,1,7.3,2.9,10.2,5.4c3,2.5,5.4,5.7,7,9.2c1.8,3.8,3,7.9,3.7,12.1
		c0.6,4,0.9,8,0.9,12.1c0,9.9,0,19.8,0,29.7c0,7.7,0,15.3,0,23c0,1.3,0,2.5,0.2,3.8c0.1,0.9,0.5,1.8,1,2.5s1.3,1.3,2.1,1.7
		c1.5,0.8,3.1,1.3,4.8,1.6c1.8,0.4,3.7,0.7,5.5,1.1c0.2,0,0.4,0.1,0.5,0.2v7.3c-0.7,0.2-58.4,0.3-60,0.1c0-2.5,0-4.9,0-7.4
		c1.2-0.2,2.3-0.5,3.4-0.7c1.8-0.4,3.6-0.8,5.3-1.2c0.6-0.2,1.3-0.4,1.8-0.8c1-0.5,1.9-1.2,2.5-2.2s1-2.1,1-3.2c0-0.4,0-0.9,0-1.3
		c0-4.3,0-8.5,0-12.8c0-6.9,0-13.8,0.1-20.6c0-7.9,0.1-15.9,0-23.8c0-3.3-0.6-6.6-1.9-9.7c-2.3-5.4-6.4-8.2-12.1-8.8
		c-2.3-0.3-4.6-0.1-6.9,0.4c-2.7,0.8-5.2,2.3-7.1,4.3c-2.6,2.5-5,5.3-7.2,8.2c-15.8,19.8-31.5,39.7-47.3,59.5
		c-3.2,4.2-6.7,8.2-10.4,11.9c-2.2,2.2-4.6,4.3-7.2,6c-4.1,2.7-8.8,4.4-13.8,4.8c-4.6,0.5-9.3,0.1-13.9-1
		c-8.5-2.2-14.6-7.4-18.3-15.3c-1.7-3.7-2.8-7.5-3.5-11.5c-0.7-4.3-1-8.6-1-12.9c0-16.9,0-33.7,0-50.6c0-0.9-0.1-1.7-0.2-2.6
		c-0.1-0.8-0.4-1.7-0.9-2.4c-0.5-0.7-1.1-1.3-1.9-1.7c-1.3-0.8-2.6-1.3-4.1-1.7C5,14.9,2.8,14.5,0.6,14C0.3,14,0.2,14,0,13.9z"/>
</g>
</svg>
