<svg width="413" height="443" viewBox="0 0 413 443" fill="none" xmlns="http://www.w3.org/2000/svg">
<g clip-path="url(#clip0_351_4817)">
<path d="M260.934 318.742C257.53 330.079 274.296 325.495 280.372 321.912C283.753 319.919 286.592 312.267 288.432 308.808C293.876 298.523 297.725 293.815 303.17 283.53C304.731 280.589 306.327 277.475 306.162 274.157C305.956 269.96 302.575 266.125 298.438 265.407C294.302 264.689 289.82 267.158 288.226 271.036" fill="white"/>
<path d="M260.934 318.742C257.53 330.079 274.296 325.495 280.372 321.912C283.753 319.919 286.592 312.267 288.432 308.808C293.876 298.523 297.725 293.815 303.17 283.53C304.731 280.589 306.327 277.475 306.162 274.157C305.956 269.96 302.575 266.125 298.438 265.407C294.302 264.689 289.82 267.158 288.226 271.036" stroke="black" stroke-width="2" stroke-miterlimit="10"/>
<path d="M165.508 105.404C136.993 117.139 124.583 147.261 108.473 173.552C100.115 187.181 95.8723 199.643 88.1115 213.62C85.6424 218.065 83.1874 222.581 81.5977 227.414C74.1681 250.189 74.514 281.04 79.7206 303.996C87.0727 336.409 91.6092 359.537 120.613 374.591C134.665 381.895 148.349 381.543 164.157 380.567C176.154 379.824 192.289 370.634 202.707 364.642C212.16 359.207 224.597 352.511 233.041 345.594C264.418 319.896 275.221 302.271 287.505 269.549C299.813 236.742 307.277 200.006 297.675 166.314C290.414 140.838 272.264 117.682 248.044 106.419C225.358 95.8712 188.162 96.0665 165.514 105.391L165.508 105.404Z" fill="white" stroke="black" stroke-width="2" stroke-miterlimit="10"/>
<path d="M282.992 310.455C286.645 305.193 289.427 299.325 291.185 293.174C292.148 289.822 292.908 286.197 295.355 283.695C297.589 281.409 301.268 279.955 301.639 276.781C298.458 275.391 294.632 275.552 291.566 277.187C288.499 278.822 286.268 281.935 285.665 285.364C285.167 288.208 285.747 291.121 285.705 294.008C285.663 296.894 284.715 300.08 282.196 301.499C279.88 302.793 276.798 302.26 274.641 303.821C276.567 301.912 278.537 299.945 279.717 297.505C280.896 295.066 281.14 291.99 279.667 289.715" stroke="black" stroke-width="2" stroke-miterlimit="10"/>
<path d="M141.402 240.127L136.806 243.304C134.653 244.787 132.469 246.303 130.762 248.284C129.055 250.266 127.832 252.796 127.952 255.41C128.158 259.908 132.067 263.233 135.639 265.969C137.324 264.834 137.45 262.004 135.868 260.726C136.291 260.038 137.377 260.127 137.983 260.654C138.589 261.181 138.861 261.978 139.176 262.716C140.891 266.647 144.675 269.436 148.813 270.551C152.951 271.667 157.374 271.251 161.474 270.013C163.1 269.534 165.039 268.965 166.342 270.063C167.313 270.892 167.415 272.544 166.554 273.484C165.693 274.423 164.026 274.454 163.124 273.548C162.894 274.963 164.653 275.77 166.051 276.103C169.155 276.821 172.324 277.538 175.493 277.286C178.663 277.034 181.92 275.633 183.64 272.959C185.266 270.415 185.287 267.106 184.4 264.236C183.513 261.367 181.81 258.809 180.135 256.294" stroke="black" stroke-width="2" stroke-miterlimit="10"/>
<path d="M214.637 198.827C219.314 200.644 224.553 199.251 229.561 199.574C237.573 200.091 244.731 204.6 250.857 209.506C257.074 214.488 262.495 217.343 269.813 223.978C266.155 215.928 262.011 207.964 255.997 201.491C249.983 195.018 239.157 189.776 230.336 189.254C226.099 189.013 206.605 183.863 204.104 188.674C201.999 192.721 211.543 197.589 214.676 198.813L214.637 198.827Z" stroke="black" stroke-width="2" stroke-miterlimit="10"/>
<path d="M208.544 214.902C211.065 212.88 214.423 212.099 217.645 212.237C220.867 212.376 224.002 213.362 227 214.57C233.5 217.193 239.768 221.103 243.559 227.008" stroke="black" stroke-width="2" stroke-miterlimit="10"/>
<path d="M225.648 223.835C227.201 224.608 228.693 225.51 230.172 226.406C234.485 229.018 238.792 231.644 243.105 234.256C238.905 232.174 234.252 230.972 229.561 230.784C225.762 230.624 221.878 231.107 218.199 230.131C215.17 229.322 212.495 227.57 209.679 226.18C206.818 224.752 202.464 225.09 200.064 223.262C202.371 220.789 209.05 220.638 212.289 220.674C216.901 220.728 221.512 221.784 225.648 223.835Z" stroke="black" stroke-width="2" stroke-miterlimit="10"/>
<path d="M213.52 220.721C212.207 221.143 211.361 222.519 211.265 223.886C211.168 225.254 211.681 226.61 212.395 227.777" stroke="black" stroke-width="2" stroke-miterlimit="10"/>
<path d="M231.291 227.289C230.912 228.95 229.753 230.415 228.228 231.181" stroke="black" stroke-width="2" stroke-miterlimit="10"/>
<path d="M218.666 222.619C217.594 222.902 217.397 224.349 217.527 225.443C217.611 226.166 217.772 226.926 218.244 227.469C219.135 228.465 220.691 228.334 222.001 228.117C222.468 228.037 222.928 227.971 223.354 227.745C224.751 227.014 224.905 224.959 224.192 223.555" stroke="black" stroke-width="2" stroke-miterlimit="10"/>
<path d="M120.591 171.421C125.009 171.415 129.321 172.598 133.545 173.833C136.582 174.726 139.717 175.712 142.115 177.777C143.047 178.587 143.847 179.54 144.861 180.246C146.765 181.583 149.214 181.909 151.541 181.859C153.528 181.822 155.726 181.409 156.915 179.816C158.166 178.125 157.773 175.618 156.497 173.93C155.221 172.242 153.253 171.24 151.308 170.423C145.329 167.906 138.814 167.245 132.369 166.507C121.553 165.272 114.274 168.313 108.969 175.409C112.097 172.58 116.429 171.422 120.572 171.428L120.591 171.421Z" stroke="black" stroke-width="2" stroke-miterlimit="10"/>
<path d="M150.133 201.232C148.841 195.915 144.453 191.726 139.43 189.569C132.19 186.466 123.388 187.304 116.859 191.703" stroke="black" stroke-width="2" stroke-miterlimit="10"/>
<path d="M147.404 204.823C137.275 196.022 122.425 193.023 109.672 197.218C114.081 197.796 118.601 198.41 122.564 200.459C124.513 201.467 126.276 202.8 128.206 203.848C131.193 205.479 134.513 206.411 137.794 207.324C139.605 207.822 141.423 208.34 143.234 208.838C144.427 209.169 147.339 210.589 148.513 210.291C151.386 209.564 148.845 206.098 147.398 204.836L147.404 204.823Z" stroke="black" stroke-width="2" stroke-miterlimit="10"/>
<path d="M144.722 203.02C143.915 205.446 141.706 207.347 139.188 207.798" stroke="black" stroke-width="2" stroke-miterlimit="10"/>
<path d="M125.247 195.131C124.843 196.479 124.432 197.839 124.433 199.237C124.433 200.635 124.896 202.095 125.971 203.005" stroke="black" stroke-width="2" stroke-miterlimit="10"/>
<path d="M133.077 198.229C132.086 199.075 131.859 200.618 132.432 201.781C133.005 202.944 134.301 203.657 135.603 203.69C136.989 203.716 138.366 202.959 139.088 201.778C139.381 201.298 139.568 200.673 139.283 200.172" stroke="black" stroke-width="2" stroke-miterlimit="10"/>
<path d="M156.691 294.066C152.929 292.463 148.46 291.142 144.887 293.139C144.088 293.584 143.047 294.168 142.381 293.532C141.944 293.117 142.001 292.43 141.926 291.822C141.634 289.571 139.224 288.295 137.056 287.578C128.932 284.864 117.016 285.138 108.586 287.296C107.552 287.566 107.463 289.017 108.471 289.402C115.93 292.212 126.256 294.706 133.078 298.753C135.432 300.145 137.717 301.648 140.188 302.795C143.552 304.367 147.666 304.566 151.285 305.37C156.392 306.519 165.569 307.957 174.287 310.192C179.326 311.483 191.953 317.313 191.162 316.539C187.067 312.569 159.528 295.245 156.697 294.053L156.691 294.066Z" stroke="black" stroke-width="2" stroke-miterlimit="10"/>
<path d="M189.175 315.91C183.772 312.285 178.866 314.647 172.633 315.693C163.511 317.236 156.757 317.478 148.836 316.702C140.914 315.927 132.981 313.446 126.833 308.386C120.737 303.383 117.859 295.228 111.394 290.7C110.246 290.042 108.779 289.39 107.94 289.482C108.289 292.349 108.908 296.313 110.124 298.926C113.344 305.83 115.481 315.505 121.117 320.638C125.651 324.754 130.763 328.621 136.614 330.442C141.109 331.839 146.452 331.528 151.137 331.062C156.674 330.509 165.611 326.623 170.813 324.641C178.236 321.796 183 319.699 189.201 315.922L189.175 315.91Z" stroke="black" stroke-width="2" stroke-miterlimit="10"/>
<path d="M175.337 311.089C175.275 312.553 174.352 313.955 173.03 314.595C171.708 315.236 170.051 315.081 168.855 314.225C168.34 315.138 167.24 315.678 166.199 315.531C165.157 315.384 164.256 314.541 164.032 313.513C162.722 315.493 159.331 315.512 158.011 313.549C157.525 314.635 156.266 315.21 155.061 315.239C153.856 315.268 152.714 314.866 151.59 314.458C150.383 314.025 148.898 313.174 149.157 311.9C148.771 313.209 147.303 313.954 145.931 313.935C144.558 313.916 143.284 313.324 142.061 312.725C141.232 312.33 140.391 311.929 139.776 311.254C139.16 310.579 138.808 309.586 139.152 308.733C137.904 310.949 135.247 310.46 133.283 309.715C132.25 309.317 131.213 308.759 130.568 307.848C129.922 306.937 129.763 305.606 130.452 304.727C130.234 305.084 129.578 305.661 129.124 305.746C128.523 305.841 127.939 305.467 127.408 305.182C126.411 304.675 125.102 304.289 124.723 303.251C124.291 302.091 124.25 300.547 124.499 300.157C124.099 301.063 122.83 301.125 121.864 300.886C120.885 300.642 119.902 300.205 119.309 299.382C118.717 298.56 118.649 297.304 119.392 296.611C118.389 296.815 117.284 296.336 116.755 295.48C116.226 294.624 116.299 293.404 116.932 292.61" stroke="black" stroke-width="2" stroke-miterlimit="10"/>
<path d="M285.354 153.816C289.002 163.354 287.71 188.945 288.087 199.147C289.001 223.709 286.178 243.487 289.291 269.701C289.48 271.269 295.426 272.023 296.822 271.26C301.324 268.848 303.967 263.739 305.088 260.62C309.372 248.639 309.504 240.236 313.788 228.254C315.561 223.302 317.647 216.196 318.544 211.018C319.758 203.941 318.983 198.838 318.106 191.717C316.349 177.283 315.455 164.103 308.565 151.304C305.297 145.235 301.299 139.596 297.314 133.963C289.628 123.135 281.804 112.13 271.334 103.976C265.477 99.4047 258.921 95.8336 252.373 92.3458C241.627 86.6342 229.933 80.9469 217.853 82.3655C206.854 83.6485 201.143 86.8974 190.087 86.5334C184.364 86.3454 174.572 89.7605 166.257 93.6737C158.133 97.4872 150.79 102.594 145.123 109.549C132.002 125.608 120.941 143.475 111.261 161.81C106.678 170.488 101.383 183.99 96.8 192.668C109.393 168.956 127.701 139.122 148.055 121.62C152.958 117.399 156.976 113.136 162.684 110.093C174.621 103.745 187.712 102.507 201.199 101.536C208.384 101.024 219.963 103.321 227.01 104.997C233.303 106.489 249.582 114.22 254.993 117.594C272.421 128.478 283.453 148.843 285.38 153.86L285.354 153.816Z" fill="white" stroke="black" stroke-width="2" stroke-miterlimit="10"/>
<path d="M114.221 160.664C112.345 159.07 140.553 114.136 154.531 106.474C167.086 99.5962 178.283 99.5985 189.853 95.2525C196.234 92.8631 202.95 89.9032 209.614 91.3176C214.564 92.3601 218.679 95.6882 222.594 98.9047C223.062 99.2871 226.457 101.494 226.482 102.109C226.542 103.249 222.263 103.162 221.056 102.063C206.415 88.6328 183.436 99.8164 179.989 99.9514C177.028 100.064 174.123 100.728 171.313 101.691C160.149 105.517 151.148 113.867 143.239 122.627C135.329 131.387 128.035 140.854 118.666 148.044C123.418 138.446 131.402 130.896 139.229 123.574C144.851 118.313 150.46 113.046 156.081 107.786C161.672 102.557 167.388 97.2308 174.324 94.0102C184.522 89.2794 196.223 89.5544 207.465 89.9278C209.48 89.9991 211.527 90.0699 213.449 90.6688C219.022 92.405 222.768 98.273 228.514 99.3134C227.542 94.6568 226.735 89.2533 229.77 85.5862C231.331 91.54 232.758 97.5411 234.018 103.558C235.775 100.107 237.525 96.6376 239.281 93.1869C238.218 97.7148 238.314 102.51 239.565 106.981C241.089 104.818 245.073 97.6957 248.121 99.5304C247.27 101.714 244.915 106.753 243.229 108.49C245.746 105.91 248.325 103.265 251.567 101.698C254.808 100.13 258.893 99.7907 261.886 101.806C258.581 104.407 255.256 106.983 251.906 109.547C251.128 110.145 250.299 110.75 249.347 110.915C243.62 111.901 243.172 100.283 247.23 102.631C249.272 103.812 249.187 110.95 250.921 113.111C254.9 118.09 262.872 121.256 267.837 125.466C273.415 130.191 278.429 135.663 281.973 142.086C287.475 152.032 289.185 163.568 290.794 174.818C292.048 183.58 293.264 192.387 293.122 201.246C292.923 213.619 290.062 225.914 290.813 238.264C291.108 243.074 291.947 247.842 292.294 252.645C292.521 255.866 292.571 259.258 294.258 262.016C295.945 264.774 299.964 266.404 302.459 264.37C301.599 262.641 300.759 260.907 300.039 259.118C295.181 247.224 295.501 233.86 297.058 221.102C298.615 208.344 301.295 195.629 300.876 182.786C299.918 153.152 280.939 124.836 253.907 112.677C253.303 110.546 255.579 108.471 257.798 108.449C260.016 108.427 261.984 109.762 263.734 111.121C269.682 115.768 274.89 121.301 280.763 126.039C286.408 130.589 292.719 134.44 297.382 139.983C305.58 149.705 307.56 163.34 306.546 176.024C305.552 188.701 301.942 201.036 300.337 213.66C298.733 226.284 299.326 239.83 306.056 250.631C301.393 229.999 304.434 208.498 307.487 187.575C309.419 200.043 309.932 212.724 309.039 225.322C315.629 217.299 317.784 206.351 317.071 195.988C316.357 185.626 313.048 175.646 309.741 165.794C307.425 158.892 305.07 151.94 301.552 145.561C295.671 134.911 286.789 126.292 278.045 117.85C274.773 114.685 271.442 111.477 267.439 109.314C259.995 105.272 250.493 105.315 243.086 109.423C244.448 104.768 247.074 100.493 250.597 97.1691" stroke="black" stroke-width="2" stroke-miterlimit="10"/>
<path d="M229.104 99.3409C227.574 93.9894 222.723 90.0722 217.42 88.3694C212.117 86.6666 206.408 86.8824 200.873 87.5309C197.712 87.8978 194.553 88.3929 191.436 89.0348" stroke="black" stroke-width="2" stroke-miterlimit="10"/>
<path d="M295.71 136.629C295.286 135.22 293.993 134.301 292.966 133.256C291.613 131.896 291.301 129.92 290.27 128.317C281.475 114.752 269.729 102.48 254.714 96.4959C252.937 95.7916 251.105 95.1718 249.203 94.9637C245.675 94.6 242.124 95.7181 239.053 97.462C235.982 99.2059 233.295 101.578 230.646 103.936C233.076 100.838 233.503 97.2772 231.547 93.851C229.591 90.4247 226.117 88.085 222.423 86.7048C216.042 84.2975 208.947 84.4559 202.279 85.8823C195.611 87.3087 189.292 89.9662 182.966 92.5085C180.592 93.457 178.198 94.4124 175.667 94.8252C174.1 95.0789 172.498 95.141 170.981 95.5926C169.463 96.0442 167.987 97.008 167.437 98.4932" stroke="black" stroke-width="2" stroke-miterlimit="10"/>
<path d="M318.688 212.214C318.688 212.214 313.932 227.719 313.241 229.867C312.55 232.015 309.629 241.105 309.194 245.615C308.759 250.125 304.676 263.95 302.193 266.991C302.193 266.991 304.029 267.739 306.991 272.519C306.991 272.519 325.552 269.235 329.993 267.048C334.435 264.862 347.32 258.459 348.503 252.447C349.686 246.436 345.678 235.821 339.247 228.688C332.817 221.556 318.701 212.22 318.701 212.22L318.688 212.214Z" fill="#B8A416" stroke="black" stroke-width="2" stroke-miterlimit="10"/>
<path d="M158.908 83.3714C161.611 78.069 164.241 72.6204 168.25 68.2105C172.498 63.5333 178.08 60.2868 183.761 57.5001C196.272 51.3473 209.754 47.0553 223.603 45.5588C236.179 44.2014 247.182 48.2729 258.636 53.1311C265.016 55.8398 271.421 58.5608 277.418 62.0397C282.332 64.8912 286.961 68.2418 291.325 71.8795C303.591 82.0963 313.894 94.6647 321.543 108.668C323.09 111.518 324.556 114.441 325.39 117.586C326.529 121.894 326.466 126.422 326.087 130.847C325.39 139.171 323.868 146.593 324.108 154.951C324.347 163.308 324.439 172.31 323.792 180.96C317.056 180.432 310.968 176.91 304.991 173.757C291.416 166.617 277.101 160.998 262.831 155.385C235.007 144.452 207.19 133.539 179.367 122.606C172.345 119.845 164.286 121.657 156.799 120.771C153.463 120.371 151.36 121.052 148.035 121.595C145.018 122.094 141.436 118.781 138.446 118.69C139.653 113.326 145.847 106.733 148.755 101.799C152.33 95.7681 155.723 89.6191 158.908 83.3714Z" fill="#F3F519" stroke="black" stroke-width="2" stroke-miterlimit="10"/>
<path d="M79.5581 158.112C77.0738 164.488 76.5337 171.616 78.1266 178.268C79.3222 183.222 80.6437 186.679 83.572 190.331C86.7762 194.337 90.0712 198.052 93.3284 202.147C96.8169 199.061 98.4355 194.401 99.5178 189.866C100.6 185.332 101.333 180.63 103.578 176.555C105.153 173.685 111.263 161.604 112.864 158.746C119.789 146.388 119.194 141.975 128.666 131.736C128.233 132.212 124.379 130.168 123.489 130.236C121.222 130.394 116.702 130.78 114.486 131.296C110.042 132.322 107.634 134.175 103.564 136.015C99.4944 137.854 95.2703 140.351 91.4979 142.999C87.7255 145.647 84.6814 148.834 82.3088 152.61C81.2255 154.349 80.2981 156.194 79.5451 158.106L79.5581 158.112Z" fill="#B8A416" stroke="black" stroke-width="2" stroke-miterlimit="10"/>
<path d="M306.991 272.519C306.78 271.529 321.172 270.291 327.931 267.209C335.313 263.852 346.12 258.475 346.379 250.371C346.567 244.615 339.37 236.259 335.412 232.069C323.911 219.914 312.137 207.533 297.332 199.743C285.131 193.322 271.448 190.339 258.447 185.728C247.182 181.738 236.395 176.515 225.59 171.394C202.26 160.365 178.695 149.795 154.947 139.71C146.188 135.994 137.212 132.301 127.72 131.555C109.219 130.118 90.4971 141.267 82.5967 158.068C74.7025 174.857 80.4801 189.254 92.7132 203.204C81.8492 189.081 70.173 177.827 76.0271 160.987C81.1144 146.355 95.4772 137.019 109.809 131.146C124.153 125.28 139.609 121.611 152.458 112.951C158.221 109.06 163.465 104.159 170 101.78C179.433 98.3522 186.445 97.1695 196.472 97.0589C216.296 96.823 242 105.538 260.891 117.516C269.327 122.873 278.954 126.733 286.414 133.372C293.914 140.061 299.623 149.073 307.122 155.762C312.307 160.379 314.455 164.5 318.163 170.382C327.177 184.686 328.304 197.644 335.7 212.845C338.687 218.971 343.433 230.668 346.751 236.634C350.069 242.6 352.914 244.528 351.197 251.127C349.167 258.847 339.004 265.405 331.324 267.588C323.644 269.771 317.873 273.245 309.934 272.509C309.144 272.434 307.775 272.639 306.997 272.538L306.991 272.519Z" fill="#F3F519" stroke="black" stroke-width="2" stroke-miterlimit="10"/>
</g>
<defs>
<clipPath id="clip0_351_4817">
<rect width="289.038" height="351.401" fill="white" transform="translate(151.388 0.783203) rotate(25.4939)"/>
</clipPath>
</defs>
</svg>
