<?xml version="1.0" encoding="UTF-8"?>
<svg id="Ebene_2" data-name="Ebene 2" xmlns="http://www.w3.org/2000/svg" viewBox="0 0 201.61 326.89">
  <defs>
    <style>
      .cls-1 {
        fill: #fff;
      }

      .cls-1, .cls-2, .cls-3, .cls-4 {
        stroke: #000;
        stroke-miterlimit: 10;
      }

      .cls-2 {
        fill: #b8a416;
      }

      .cls-3 {
        fill: #f3f519;
      }

      .cls-4 {
        fill: none;
      }
    </style>
  </defs>
  <g id="pfad">
    <g>
      <path class="cls-1" d="m164.43,167.3c1.26,8.16,10.44.24,13.19-3.84,1.53-2.27,1.02-7.94,1.14-10.67.34-8.11,1.35-12.23,1.69-20.34.1-2.32.17-4.76-.93-6.8-1.39-2.58-4.67-3.98-7.49-3.19s-4.9,3.69-4.74,6.61"/>
      <path class="cls-1" d="m40.3,61.63c-14.43,15.95-13.2,38.64-15.45,60.03-1.17,11.09-.1,20.21-.79,31.34-.22,3.54-.41,7.12.04,10.64,2.16,16.57,11.64,35.89,21.81,48.78,14.36,18.2,24.16,31.4,46.94,32.17,11.04.38,19.55-3.95,29.21-9.31,7.33-4.07,14.73-14.7,19.49-21.6,4.32-6.26,10.14-14.21,13.38-21.1,12.04-25.6,13.55-39.94,11.46-64.23-2.1-24.35-8.43-49.72-24.59-68.05-12.22-13.86-30.6-22.99-49.23-22.81-17.45.17-40.81,11.46-52.27,24.13Z"/>
      <path class="cls-4" d="m175.83,155.46c.72-4.41.71-8.94-.03-13.34-.4-2.4-1.01-4.91-.22-7.22.72-2.11,2.6-4.13,1.88-6.24-2.42.08-4.78,1.33-6.22,3.28s-1.91,4.58-1.26,6.92c.54,1.94,1.78,3.6,2.62,5.43s1.2,4.12.04,5.77c-1.07,1.51-3.17,2.1-4.06,3.73.64-1.78,1.29-3.61,1.3-5.5s-.76-3.9-2.37-4.89"/>
    </g>
    <path class="cls-4" d="m65.57,153.69l-1.94,3.38c-.91,1.58-1.83,3.19-2.31,4.95s-.49,3.72.37,5.33c1.48,2.77,4.94,3.69,8.01,4.34.72-1.22-.05-3.04-1.43-3.37.06-.56.77-.83,1.31-.68s.95.57,1.37.94c2.26,1.96,5.48,2.58,8.42,2.04s5.6-2.13,7.81-4.14c.88-.79,1.93-1.73,3.08-1.43.86.23,1.42,1.24,1.16,2.09s-1.3,1.37-2.14,1.07c.28.96,1.63.94,2.61.73,2.17-.48,4.38-.98,6.3-2.09s3.55-2.97,3.83-5.17c.26-2.09-.72-4.18-2.14-5.72s-3.26-2.64-5.07-3.72"/>
    <g>
      <path class="cls-4" d="m99.28,105.7c3.49-.26,6.37-2.71,9.62-4.01,5.2-2.08,11.06-1.39,16.39-.14,5.41,1.27,9.68,1.44,16.28,3.42-4.72-3.97-9.72-7.74-15.45-10.01-5.73-2.27-14.12-2.32-19.83,0-2.74,1.12-16.56,3.73-16.69,7.51-.11,3.18,7.36,3.38,9.7,3.21Z"/>
      <path class="cls-4" d="m100.27,117.65c.98-2.03,2.86-3.53,4.93-4.41s4.34-1.2,6.59-1.34c4.88-.3,10,.28,14.16,2.86"/>
      <path class="cls-4" d="m113.72,118.14c1.21.02,2.42.14,3.62.26,3.5.35,7,.71,10.5,1.06-3.27-.05-6.56.59-9.57,1.88-2.44,1.04-4.74,2.51-7.35,3-2.15.4-4.36.1-6.55.07-2.23-.04-4.87,1.48-6.93,1.05.71-2.25,4.87-4.35,6.92-5.3,2.92-1.35,6.14-2.07,9.36-2.02Z"/>
      <path class="cls-4" d="m105.15,119.82c-.7.66-.82,1.78-.47,2.67s1.08,1.59,1.88,2.11"/>
      <path class="cls-4" d="m118.31,118.62c.26,1.16-.03,2.43-.76,3.37"/>
      <path class="cls-4" d="m108.96,119.47c-.59.5-.28,1.47.13,2.12.27.43.6.86,1.06,1.06.86.36,1.8-.19,2.56-.72.27-.19.54-.37.74-.64.66-.88.14-2.22-.73-2.89"/>
    </g>
    <g>
      <path class="cls-4" d="m31.84,116.68c2.78-1.33,5.85-1.88,8.88-2.37,2.18-.35,4.45-.67,6.58-.09.83.23,1.62.59,2.47.73,1.6.27,3.24-.26,4.69-.99,1.24-.62,2.5-1.54,2.77-2.9.28-1.44-.72-2.9-2.03-3.58s-2.85-.72-4.32-.65c-4.52.21-8.82,1.75-13.1,3.22-7.18,2.47-10.85,6.57-12.06,12.63,1.12-2.72,3.5-4.75,6.11-5.99Z"/>
      <path class="cls-4" d="m59.39,126.58c-2.41-2.96-6.43-4.28-10.24-4.13-5.49.22-10.78,3.39-13.57,8.12"/>
      <path class="cls-4" d="m58.75,129.66c-9.02-2.5-19.27.07-26.04,6.54,2.95-.96,5.98-1.93,9.09-1.83,1.53.05,3.04.36,4.57.44,2.37.13,4.74-.28,7.08-.69,1.29-.23,2.59-.45,3.88-.68.85-.15,3.11-.13,3.76-.67,1.59-1.32-1.05-2.74-2.34-3.1Z"/>
      <path class="cls-4" d="m56.52,129.33c.22,1.77-.6,3.63-2.05,4.67"/>
      <path class="cls-4" d="m41.89,130.21c.15.97.3,1.95.72,2.83s1.15,1.66,2.1,1.91"/>
      <path class="cls-4" d="m47.75,129.81c-.37.83-.05,1.87.66,2.43s1.74.62,2.57.25c.88-.4,1.52-1.29,1.62-2.25.04-.39-.03-.84-.36-1.07"/>
    </g>
    <g>
      <path class="cls-4" d="m91.39,183.06c-2.85.12-6.06.63-7.71,2.96-.37.52-.85,1.2-1.46,1-.4-.13-.57-.58-.8-.94-.86-1.33-2.76-1.41-4.34-1.21-5.93.73-13.35,4.48-18.01,8.37-.57.48-.19,1.42.56,1.36,5.54-.47,12.79-2,18.3-1.5,1.9.17,3.79.43,5.69.41,2.59-.02,5.24-1.13,7.76-1.71,3.56-.81,9.77-2.66,15.93-3.87,3.56-.7,13.26-.82,12.53-1.07-3.77-1.27-26.31-3.91-28.45-3.81Z"/>
      <path class="cls-4" d="m118.4,187.06c-4.49-.66-6.87,2.3-10.48,4.83-5.28,3.71-9.46,5.89-14.68,7.78s-10.96,2.71-16.35,1.37c-5.34-1.32-9.6-5.59-15.03-6.5-.92-.07-2.04-.04-2.54.27,1.08,1.7,2.66,4.01,4.21,5.29,4.1,3.38,8.35,8.83,13.44,10.37,4.09,1.23,8.47,2.13,12.7,1.52,3.25-.47,6.52-2.27,9.33-3.97,3.32-2.01,7.78-7.14,10.46-9.95,3.82-4.02,6.19-6.77,8.96-11.01Z"/>
      <path class="cls-4" d="m108.24,188.18c.4.94.24,2.1-.4,2.9s-1.73,1.2-2.74,1.02c-.05.73-.58,1.4-1.28,1.62s-1.52-.04-1.97-.62c-.23,1.64-2.36,2.67-3.78,1.83.02.83-.6,1.57-1.35,1.95s-1.59.47-2.42.55c-.89.09-2.08,0-2.3-.88.15.94-.55,1.85-1.42,2.25s-1.85.41-2.8.4c-.64,0-1.29,0-1.88-.24s-1.11-.76-1.15-1.4c-.12,1.77-1.94,2.26-3.4,2.38-.77.06-1.59.02-2.27-.36s-1.18-1.17-1.01-1.93c-.03.29-.27.85-.53,1.04-.35.24-.83.18-1.25.16-.78-.02-1.72.13-2.27-.41-.62-.6-1.11-1.56-1.07-1.88.02.69-.76,1.11-1.44,1.25-.69.14-1.44.16-2.06-.18s-1.04-1.11-.78-1.77c-.57.43-1.41.46-2,.08s-.91-1.17-.75-1.86"/>
    </g>
    <path class="cls-1" d="m130.29,56.13c5.16,4.91,12.03,21.41,15.33,27.72,7.95,15.19,12.11,28.49,21.94,44.06.59.93,4.56-.38,5.21-1.28,2.11-2.87,2.24-6.88,2.01-9.18-.9-8.83-3.34-14.16-4.24-22.99-.37-3.65-1.19-8.75-2.18-12.28-1.36-4.82-3.38-7.8-6.07-12.02-5.44-8.56-9.96-16.59-18.14-22.58-3.88-2.84-8.09-5.19-12.29-7.54-8.09-4.51-16.32-9.09-25.36-11.08-5.06-1.12-10.26-1.4-15.43-1.63-8.48-.37-17.55-.44-24.73,4.08-6.54,4.11-9.16,7.87-16.23,10.96-3.66,1.6-8.8,6.69-12.86,11.65-3.97,4.84-7.06,10.26-8.54,16.34-3.44,14.05-5.04,28.62-5.63,43.07-.28,6.84.44,16.93.16,23.77.81-18.71,3.38-42.99,10.94-60.12,1.82-4.13,3.07-8.02,5.75-11.65,5.61-7.58,13.48-12.29,21.68-16.95,4.37-2.48,12.35-4.51,17.29-5.57,4.41-.95,16.98-.97,21.4-.47,14.24,1.62,27.3,11.13,30.02,13.71Z"/>
    <path class="cls-4" d="m24.6,111.82c-1.66-.44,2.61-37.2,9.11-46.22,5.84-8.1,12.89-11.46,18.87-17.67,3.3-3.42,6.64-7.3,11.26-8.41,3.43-.83,7.02.03,10.45.88.41.1,3.21.47,3.41.85.38.7-2.34,1.93-3.43,1.6-13.25-4.06-24.36,9.88-26.49,11-1.83.96-3.46,2.25-4.94,3.7-5.88,5.76-9.04,13.72-11.39,21.61-2.35,7.89-4.1,16.04-7.84,23.38.11-7.47,2.87-14.62,5.6-21.58,1.96-5,3.91-10,5.87-15,1.95-4.97,3.95-10.04,7.35-14.15,5-6.04,12.45-9.38,19.64-12.52,1.29-.56,2.6-1.13,3.99-1.33,4.03-.58,8.15,1.99,12.08.92-2.01-2.64-4.14-5.8-3.33-9.02,2.77,3.28,5.47,6.63,8.07,10.04.07-2.7.13-5.41.2-8.11.69,3.17,2.19,6.16,4.32,8.6.31-1.82.68-7.5,3.15-7.26.12,1.63.15,5.51-.39,7.11.81-2.38,1.64-4.82,3.21-6.78s4.04-3.4,6.53-3.03c-1.3,2.63-2.62,5.25-3.96,7.87-.31.61-.65,1.24-1.2,1.63-3.31,2.34-7.08-4.84-3.82-4.58,1.64.13,3.73,4.65,5.47,5.49,4,1.94,9.97,1.54,14.36,2.7,4.93,1.3,9.73,3.24,13.89,6.22,6.45,4.61,10.99,11.36,15.38,17.96,3.42,5.14,6.83,10.32,9.4,15.94,3.59,7.85,5.48,16.45,9.66,24,1.63,2.94,3.59,5.69,5.25,8.61,1.11,1.96,2.16,4.08,4.05,5.31s4.91,1.05,5.87-.98c-1.06-.83-2.11-1.67-3.1-2.58-6.63-6.03-10.44-14.54-13.29-23.04s-4.98-17.31-9.1-25.27c-9.5-18.37-29.95-30.5-50.62-30.04-1.02-1.16-.21-3.15,1.18-3.83s3.03-.43,4.54-.1c5.14,1.14,10.08,3.06,15.2,4.28,4.92,1.17,10.05,1.7,14.65,3.79,8.08,3.66,13.42,11.65,16.59,19.94,3.18,8.28,4.61,17.13,7.39,25.56s7.22,16.78,14.7,21.56c-9.13-11.59-13.67-26.04-18.03-40.13,4.96,7.27,9.09,15.1,12.31,23.3,1.74-7.03-.19-14.57-3.75-20.88-3.56-6.31-8.64-11.6-13.68-16.81-3.53-3.65-7.1-7.32-11.23-10.28-6.9-4.94-15.08-7.7-23.12-10.39-3.01-1.01-6.07-2.03-9.24-2.19-5.9-.31-11.87,2.57-15.3,7.38-.54-3.34-.17-6.82,1.05-9.97"/>
    <path class="cls-4" d="m78.52,38.72c-2.57-2.91-6.8-3.92-10.65-3.4s-7.38,2.37-10.67,4.44c-1.88,1.18-3.72,2.44-5.49,3.78"/>
    <path class="cls-4" d="m131.65,42.2c-.69-.76-1.78-.95-2.74-1.3-1.26-.45-2.05-1.6-3.18-2.3-9.61-5.9-20.69-10.1-31.94-9.36-1.33.09-2.67.25-3.93.69-2.33.83-4.23,2.6-5.64,4.62s-2.39,4.32-3.35,6.6c.6-2.68-.2-5.05-2.46-6.62s-5.15-2-7.89-1.76c-4.74.4-9.16,2.63-12.93,5.53s-6.95,6.47-10.17,9.97c-1.21,1.31-2.43,2.63-3.9,3.65-.91.63-1.9,1.15-2.72,1.89s-1.46,1.79-1.36,2.89"/>
  </g>
  <g id="Ebene_4" data-name="Ebene 4">
    <path class="cls-2" d="m168.81,82.89s1.66,11.19,1.87,12.75,1.1,8.16,2.18,11.13,2.66,12.9,2.01,15.56c0,0,1.38-.08,4.68,2.04,0,0,10.7-7.64,12.84-10.35s8.33-10.61,7.27-14.75-6.77-9.62-12.96-12.18-17.88-4.2-17.88-4.2Z"/>
    <path class="cls-3" d="m29.53,49.74c.11-4.15.13-8.37,1.33-12.35,1.27-4.22,3.81-7.94,6.55-11.4,6.03-7.63,13.23-14.38,21.5-19.48,7.51-4.63,15.66-5.37,24.33-5.75,4.83-.21,9.68-.42,14.5-.03,3.95.32,7.87,1.04,11.71,2.02,10.79,2.75,21.05,7.57,30.07,14.09,1.83,1.33,3.63,2.73,5.1,4.46,2.01,2.37,3.33,5.24,4.42,8.14,2.06,5.45,3.33,10.58,5.99,15.77s5.42,10.83,7.61,16.47c-4.4,1.69-9.29,1.3-14,1.11-10.69-.42-21.39.34-32.06,1.09-20.8,1.47-41.59,2.95-62.39,4.42-5.25.37-9.78,3.93-14.76,5.62-2.22.75-3.34,1.81-5.27,3.15-1.75,1.22-5,.21-6.91,1.05-.85-3.74,1.07-9.75,1.42-13.73.44-4.87.73-9.76.86-14.65Z"/>
    <path class="cls-2" d="m2.01,120.62c.35,4.76,2.15,9.41,5.15,13.12,2.24,2.76,4.11,4.54,7.05,5.96,3.22,1.56,6.41,2.91,9.69,4.51,1.27-2.99.89-6.41.21-9.59s-1.63-6.36-1.44-9.6c.13-2.28.35-11.72.5-14,.65-9.86-1.05-12.46,1.84-21.75-.13.43-3.17.3-3.71.61-1.38.78-4.11,2.38-5.35,3.37-2.49,1.98-3.45,3.87-5.46,6.25s-3.92,5.22-5.5,8.02-2.54,5.72-2.9,8.81c-.16,1.42-.19,2.86-.09,4.29Z"/>
    <path class="cls-3" d="m179.55,124.37c-.43-.56,8.26-5.66,11.59-9.63,3.64-4.33,8.83-10.96,6.56-16.14-1.61-3.68-8.65-6.78-12.4-8.23-10.89-4.2-22.02-8.46-33.68-8.92-9.61-.38-19.12,1.85-28.69,2.85-8.29.87-16.65.82-24.99.84-18,.06-36.01.48-53.99,1.26-6.63.29-13.39.66-19.59,3.04-12.08,4.65-20.52,17.29-20.45,30.24.07,12.94,8.03,20.27,19.92,25.38-11.08-5.63-21.81-9.21-23.18-21.57-1.19-10.74,5.05-20.93,12.31-28.93,7.27-8,15.9-14.95,21.39-24.26,2.46-4.18,4.29-8.84,7.69-12.3,4.91-4.99,8.97-7.84,15.25-10.92,12.41-6.1,31.21-8.33,46.7-6.46,6.92.84,14.14.38,20.83,2.32,6.73,1.96,13.03,5.92,19.76,7.88,4.65,1.35,7.24,3.3,11.34,5.89,9.97,6.3,14.57,14.12,23.79,21.47,3.72,2.96,10.22,8.9,14.1,11.66s6.25,3.12,7.15,7.79c1.04,5.47-3.39,12.65-7.57,16.33s-6.77,7.6-11.99,9.52c-.52.19-1.32.73-1.84.9Z"/>
  </g>
  <g id="Hand">
    <path class="cls-1" d="m141.79,292.11c0-1.11-.48-2.17-1.26-2.97-2.65-2.71-5.12-5.65-6.53-9.15-1.26-3.12-1.6-6.54-2.07-9.85l-1.34-9.69c-.81-6.36-1.28-6.07-.9-12.51.74-12.51,6.74-23.96,15.99-32.38.69-.63,1.31-1.36,1.72-2.2,1.76-3.61-1.25-5.48-3.94-6.36-3.84-1.26-10.28-.61-13.53,1.81s-5.42,5.69-7.56,9.14c-2.63,4.25-4.18,10.45-6.03,15.09-.04.11-.09.22-.13.32-3.01,7.57-12.11,10.61-19.07,6.38-3.12-1.89-6.23-3.78-9.27-5.55s-5.65-3.78-8.18-6.06c-3.6-3.25-7.6-6.26-11.04-9.74-7.34-7.4-16.49-12.98-26.43-16.11-1.18-.37-2.47-.37-3.6.11-3.68,1.56-2.62,6.04-.65,8.82,2.83,3.98,6.97,6.76,10.77,9.82,7.46,6,14.33,12.44,20.38,19.73-4.27-2.47-6.88-4.94-11.15-7.42-2.16-1.25-6.15-2.33-9.05-.79-1.75.93-3.08,2.55-3.62,4.45-.99,3.46.33,7.13,2.36,10.05,2.39,3.42,6.12,4.89,9.69,7.64-4.35-3.04-7.93-4.81-12.05-2.83-1.28.61-2.5,1.46-3.19,2.7-.84,1.51-.78,3.37-.37,5.05,1.05,4.32,4.29,8.05,8.43,9.69-2.13-1.22-2.59-.96-4.13-1.17-4.06-.57-7.78,4.15-6.79,8.31.81,3.41,2.7,6.51,5.46,8.66,8.33,6.48,15.2,9.56,23.24,16.39,11.39,9.67,28.25,13.54,39.61,23.26.75.64,1.52,1.32,2.47,1.55,1.35.33,2.73-.32,3.98-.95,6.97-3.52,8.02-5.1,13.87-10.26,5.51-4.86,13.88-16.15,13.92-22.98Z"/>
    <path class="cls-4" d="m145.16,216.66c-1.55,1.77-3.41,3.59-5.79,3.77-.32.02-.67,0-.9-.21-.14-.13-.22-.32-.28-.51-.42-1.34-.28-2.84.4-4.08.4-.73.97-1.36,1.54-1.98.94-1.03,1.89-2.07,2.83-3.1.69-.76,1.4-1.53,2.32-1.99s2.11-.57,2.96.02c3.13,2.14-1.71,6.52-3.08,8.09Z"/>
    <path class="cls-4" d="m38.18,209.74c1.42,1.05,3.12,1.81,4.88,1.84.88.02,2.2-.92,2.72-1.63.73-1,.51-1.91.36-2.74s-.58-1.58-1.04-2.29c-.78-1.21-1.7-2.36-2.87-3.2s-2.63-1.34-4.06-1.17c-1.78.22-4.01,1.8-3.68,3.85.26,1.59,2.48,4.44,3.68,5.33Z"/>
  </g>
</svg>