<svg width="153" height="153" viewBox="0 0 153 153" fill="none" xmlns="http://www.w3.org/2000/svg">
<g clip-path="url(#clip0_314_49)">
<path d="M117.141 0H35.8594C16.0548 0 0 16.0548 0 35.8594V117.141C0 136.945 16.0548 153 35.8594 153H117.141C136.945 153 153 136.945 153 117.141V35.8594C153 16.0548 136.945 0 117.141 0Z" fill="#222222"/>
<mask id="mask0_314_49" style="mask-type:luminance" maskUnits="userSpaceOnUse" x="36" y="16" width="81" height="121">
<path d="M36.457 16.7344H116.16V136.266H36.457V16.7344Z" fill="white"/>
</mask>
<g mask="url(#mask0_314_49)">
<path d="M56.3891 136.266C67.3859 136.266 76.3107 127.341 76.3107 116.344V96.4219H56.3891C45.3922 96.4219 36.4668 105.347 36.4668 116.344C36.4668 127.341 45.3922 136.266 56.3891 136.266Z" fill="white"/>
<path d="M36.4668 76.4998C36.4668 65.5029 45.3922 56.5781 56.3891 56.5781H76.3107V96.4215H56.3891C45.3922 96.4215 36.4668 87.4967 36.4668 76.4998Z" fill="white"/>
<path d="M36.4668 36.6561C36.4668 25.6592 45.3922 16.7344 56.3891 16.7344H76.3107V56.5783H56.3891C45.3922 56.5783 36.4668 47.6529 36.4668 36.6561Z" fill="white"/>
<path d="M76.3105 16.7344H96.2322C107.229 16.7344 116.154 25.6592 116.154 36.6561C116.154 47.6529 107.229 56.5783 96.2322 56.5783H76.3105V16.7344Z" fill="white"/>
<path d="M116.154 76.4998C116.154 87.4967 107.229 96.4215 96.2322 96.4215C85.2353 96.4215 76.3105 87.4967 76.3105 76.4998C76.3105 65.5029 85.2353 56.5781 96.2322 56.5781C107.229 56.5781 116.154 65.5029 116.154 76.4998Z" fill="white"/>
</g>
</g>
<defs>
<clipPath id="clip0_314_49">
<rect width="153" height="153" fill="white"/>
</clipPath>
</defs>
</svg>
