<svg width="145" height="136" viewBox="0 0 145 136" fill="none" xmlns="http://www.w3.org/2000/svg">
<path fill-rule="evenodd" clip-rule="evenodd" d="M91.7332 3.40346C91.7332 1.9051 90.5185 0.69043 89.0201 0.69043L56.0841 0.69043C54.5858 0.69043 53.3711 1.9051 53.3711 3.40347L53.3711 38.9113C53.3711 38.9893 53.4343 39.0525 53.5123 39.0525V39.0525C53.5449 39.0525 53.5765 39.0638 53.6018 39.0844L70.9266 53.2546C71.9259 54.072 73.3627 54.072 74.3619 53.2546L91.7243 39.0538C91.7253 39.053 91.7265 39.0525 91.7277 39.0525L91.7291 39.0525C91.7314 39.0525 91.7332 39.0507 91.7332 39.0484V39.0484C91.7332 39.0472 91.7337 39.046 91.7347 39.0452L91.7436 39.0379C91.7483 39.0341 91.7456 39.0266 91.7396 39.0266V39.0266C91.736 39.0266 91.7332 39.0238 91.7332 39.0202L91.7332 3.40346Z" fill="black"/>
<path fill-rule="evenodd" clip-rule="evenodd" d="M53.384 132.51C53.384 134.008 54.5987 135.223 56.097 135.223L89.0331 135.223C90.5314 135.223 91.7461 134.008 91.7461 132.51L91.7461 97.0016C91.7461 96.9237 91.6829 96.8606 91.605 96.8606V96.8606C91.5725 96.8606 91.5409 96.8493 91.5157 96.8287L74.1915 82.659C73.1922 81.8417 71.7554 81.8417 70.7562 82.659L53.3948 96.8591C53.3936 96.86 53.3922 96.8606 53.3906 96.8606L53.389 96.8606C53.3862 96.8606 53.384 96.8628 53.384 96.8656V96.8656C53.384 96.867 53.3833 96.8685 53.3822 96.8694L53.374 96.8761C53.3695 96.8798 53.3721 96.887 53.3779 96.887V96.887C53.3813 96.887 53.384 96.8898 53.384 96.8932L53.384 132.51Z" fill="black"/>
<path fill-rule="evenodd" clip-rule="evenodd" d="M142.229 88.3797C143.728 88.3797 144.942 87.165 144.942 85.6666L144.942 52.7306C144.942 51.2322 143.728 50.0176 142.229 50.0176L106.721 50.0176C106.643 50.0176 106.58 50.0807 106.58 50.1585V50.1585C106.58 50.191 106.569 50.2225 106.548 50.2477L92.3782 67.5725C91.5609 68.5718 91.5609 70.0086 92.3782 71.0079L106.579 88.37C106.58 88.3711 106.58 88.3724 106.58 88.3738L106.58 88.3752C106.58 88.3777 106.582 88.3797 106.585 88.3797V88.3797C106.586 88.3797 106.587 88.3803 106.588 88.3813L106.595 88.3899C106.599 88.3944 106.606 88.3918 106.606 88.3859V88.3859C106.606 88.3825 106.609 88.3797 106.612 88.3797L142.229 88.3797Z" fill="black"/>
<path fill-rule="evenodd" clip-rule="evenodd" d="M2.90005 50.0295C1.40168 50.0295 0.187012 51.2442 0.187012 52.7425L0.187012 85.6786C0.187012 87.1769 1.40168 88.3916 2.90005 88.3916L38.4083 88.3916C38.486 88.3916 38.5491 88.3285 38.5491 88.2508V88.2508C38.5491 88.2182 38.5603 88.1867 38.5809 88.1616L52.7511 70.8368C53.5684 69.8375 53.5684 68.4007 52.7511 67.4015L38.5505 50.0394C38.5496 50.0383 38.5491 50.037 38.5491 50.0356L38.5491 50.0341C38.5491 50.0315 38.5471 50.0295 38.5445 50.0295V50.0295C38.5432 50.0295 38.5419 50.0289 38.541 50.0278L38.5341 50.0194C38.5304 50.0149 38.5231 50.0175 38.5231 50.0233V50.0233C38.5231 50.0267 38.5203 50.0295 38.5169 50.0295L2.90005 50.0295Z" fill="black"/>
</svg>
