<svg width="411" height="574" viewBox="0 0 411 574" fill="none" xmlns="http://www.w3.org/2000/svg">
<rect x="1.92733" y="1.87069" width="407.016" height="569.988" rx="39.3886" fill="white" fill-opacity="0.3" stroke="black" stroke-width="3.28239"/>
<path d="M41.561 61.9253V40.2236H50.2502C51.8467 40.2236 53.1783 40.4602 54.2451 40.9335C55.3118 41.4068 56.1136 42.0638 56.6505 42.9045C57.1874 43.7381 57.4558 44.6988 57.4558 45.7867C57.4558 46.6345 57.2863 47.3798 56.9472 48.0226C56.6081 48.6584 56.1418 49.1812 55.5484 49.5909C54.9621 49.9936 54.291 50.2797 53.5351 50.4492V50.6612C54.3616 50.6965 55.1352 50.9296 55.8557 51.3605C56.5834 51.7915 57.1732 52.3955 57.6254 53.1725C58.0775 53.9426 58.3035 54.8609 58.3035 55.9276C58.3035 57.0791 58.0174 58.107 57.4452 59.0112C56.8801 59.9084 56.0429 60.6184 54.9338 61.1411C53.8247 61.6639 52.4578 61.9253 50.833 61.9253H41.561ZM46.1493 58.1741H49.8899C51.1685 58.1741 52.101 57.9304 52.6874 57.443C53.2737 56.9484 53.5669 56.2915 53.5669 55.472C53.5669 54.8715 53.4221 54.3417 53.1324 53.8825C52.8428 53.4233 52.4295 53.063 51.8926 52.8017C51.3628 52.5403 50.7305 52.4096 49.9958 52.4096H46.1493V58.1741ZM46.1493 49.3048H49.5508C50.1795 49.3048 50.7376 49.1953 51.225 48.9763C51.7195 48.7503 52.1081 48.4324 52.3907 48.0226C52.6803 47.6129 52.8251 47.1219 52.8251 46.5497C52.8251 45.7656 52.5461 45.1333 51.988 44.6529C51.437 44.1725 50.6528 43.9324 49.6356 43.9324H46.1493V49.3048ZM66.5217 61.9253H61.6049L69.0967 40.2236H75.0095L82.4907 61.9253H77.5739L72.1379 45.1827H71.9683L66.5217 61.9253ZM66.2144 53.3951H77.8282V56.9767H66.2144V53.3951ZM60.709 78.8213H56.0677C55.9829 78.2208 55.8098 77.6875 55.5484 77.2212C55.2871 76.7479 54.9515 76.3452 54.5418 76.0132C54.132 75.6812 53.6587 75.4269 53.1218 75.2502C52.592 75.0736 52.0163 74.9853 51.3946 74.9853C50.2714 74.9853 49.2929 75.2644 48.4593 75.8225C47.6257 76.3735 46.9794 77.1788 46.5202 78.2385C46.061 79.2911 45.8314 80.5697 45.8314 82.0744C45.8314 83.6215 46.061 84.9214 46.5202 85.974C46.9864 87.0265 47.6363 87.8213 48.4699 88.3582C49.3035 88.8951 50.2678 89.1635 51.3628 89.1635C51.9774 89.1635 52.5461 89.0823 53.0688 88.9198C53.5987 88.7573 54.0685 88.5207 54.4782 88.2098C54.8879 87.8919 55.227 87.5069 55.4955 87.0548C55.771 86.6027 55.9617 86.087 56.0677 85.5077L60.709 85.5289C60.5889 86.525 60.2886 87.4857 59.8082 88.4112C59.3349 89.3295 58.6956 90.1525 57.8903 90.8802C57.092 91.6007 56.1383 92.1729 55.0292 92.5968C53.9272 93.0136 52.6803 93.222 51.2886 93.222C49.353 93.222 47.6222 92.784 46.0963 91.908C44.5775 91.032 43.3765 89.764 42.4935 88.1039C41.6175 86.4437 41.1795 84.4339 41.1795 82.0744C41.1795 79.7079 41.6246 77.6945 42.5147 76.0344C43.4048 74.3743 44.6128 73.1097 46.1387 72.2408C47.6646 71.3648 49.3812 70.9269 51.2886 70.9269C52.5461 70.9269 53.7117 71.1035 54.7855 71.4567C55.8663 71.8099 56.8236 72.3256 57.6571 73.0038C58.4907 73.6749 59.1689 74.4979 59.6917 75.4728C60.2215 76.4477 60.5606 77.5638 60.709 78.8213ZM65.4912 92.9253V71.2236H70.0795V80.7922H70.3656L78.1752 71.2236H83.6749L75.6215 80.9406L83.7702 92.9253H78.2812L72.3365 84.003L70.0795 86.7581V92.9253H65.4912Z" fill="black"/>
<path d="M333.694 502.996V481.294H342.383C343.98 481.294 345.311 481.531 346.378 482.004C347.445 482.478 348.246 483.135 348.783 483.975C349.32 484.809 349.589 485.77 349.589 486.858C349.589 487.705 349.419 488.451 349.08 489.093C348.741 489.729 348.275 490.252 347.681 490.662C347.095 491.064 346.424 491.35 345.668 491.52V491.732C346.494 491.767 347.268 492 347.989 492.431C348.716 492.862 349.306 493.466 349.758 494.243C350.21 495.013 350.436 495.932 350.436 496.998C350.436 498.15 350.15 499.178 349.578 500.082C349.013 500.979 348.176 501.689 347.067 502.212C345.958 502.735 344.591 502.996 342.966 502.996H333.694ZM338.282 499.245H342.023C343.301 499.245 344.234 499.001 344.82 498.514C345.407 498.019 345.7 497.362 345.7 496.543C345.7 495.942 345.555 495.412 345.265 494.953C344.976 494.494 344.562 494.134 344.025 493.872C343.496 493.611 342.863 493.48 342.129 493.48H338.282V499.245ZM338.282 490.376H341.684C342.312 490.376 342.87 490.266 343.358 490.047C343.852 489.821 344.241 489.503 344.523 489.093C344.813 488.684 344.958 488.193 344.958 487.621C344.958 486.836 344.679 486.204 344.121 485.724C343.57 485.243 342.786 485.003 341.768 485.003H338.282V490.376ZM358.655 502.996H353.738L361.229 481.294H367.142L374.624 502.996H369.707L364.271 486.254H364.101L358.655 502.996ZM358.347 494.466H369.961V498.048H358.347V494.466ZM352.842 519.892H348.2C348.116 519.292 347.943 518.758 347.681 518.292C347.42 517.819 347.084 517.416 346.675 517.084C346.265 516.752 345.792 516.498 345.255 516.321C344.725 516.144 344.149 516.056 343.527 516.056C342.404 516.056 341.426 516.335 340.592 516.893C339.759 517.444 339.112 518.25 338.653 519.309C338.194 520.362 337.964 521.641 337.964 523.145C337.964 524.692 338.194 525.992 338.653 527.045C339.119 528.097 339.769 528.892 340.603 529.429C341.436 529.966 342.401 530.234 343.496 530.234C344.11 530.234 344.679 530.153 345.202 529.991C345.731 529.828 346.201 529.591 346.611 529.281C347.021 528.963 347.36 528.578 347.628 528.126C347.904 527.673 348.095 527.158 348.2 526.579L352.842 526.6C352.722 527.596 352.421 528.557 351.941 529.482C351.468 530.4 350.828 531.223 350.023 531.951C349.225 532.672 348.271 533.244 347.162 533.668C346.06 534.084 344.813 534.293 343.421 534.293C341.486 534.293 339.755 533.855 338.229 532.979C336.71 532.103 335.509 530.835 334.626 529.175C333.75 527.515 333.312 525.505 333.312 523.145C333.312 520.779 333.757 518.765 334.647 517.105C335.538 515.445 336.746 514.181 338.272 513.312C339.797 512.436 341.514 511.998 343.421 511.998C344.679 511.998 345.845 512.174 346.918 512.527C347.999 512.881 348.956 513.396 349.79 514.075C350.624 514.746 351.302 515.569 351.824 516.544C352.354 517.518 352.693 518.635 352.842 519.892ZM357.624 533.996V512.294H362.212V521.863H362.498L370.308 512.294H375.808L367.754 522.011L375.903 533.996H370.414L364.469 525.074L362.212 527.829V533.996H357.624Z" fill="black"/>
<line x1="97.1172" y1="67.1083" x2="306.735" y2="67.1083" stroke="black" stroke-width="3.28239"/>
<line x1="102.904" y1="506.127" x2="315.396" y2="506.127" stroke="black" stroke-width="3.28239"/>
<line x1="60.19" y1="322.288" x2="60.19" y2="468.79" stroke="black" stroke-width="3.28239"/>
<line x1="60.19" y1="113.472" x2="60.19" y2="251.91" stroke="black" stroke-width="3.28239"/>
<line x1="349.861" y1="109.369" x2="349.861" y2="251.91" stroke="black" stroke-width="3.28239"/>
<line x1="349.861" y1="322.288" x2="349.861" y2="460.584" stroke="black" stroke-width="3.28239"/>
<path d="M39.0172 315.178V306.675L65.7397 271.008H39.1276V258.641H85.2846V267.144L58.5621 302.81H85.1742V315.178H39.0172ZM127.786 258.641H143.135V294.86C143.135 299.166 142.104 302.893 140.043 306.04C138 309.169 135.147 311.589 131.485 313.301C127.823 314.994 123.571 315.84 118.731 315.84C113.854 315.84 109.584 314.994 105.922 313.301C102.26 311.589 99.4069 309.169 97.3641 306.04C95.3397 302.893 94.3274 299.166 94.3274 294.86V258.641H109.676V293.535C109.676 295.283 110.063 296.847 110.836 298.228C111.609 299.59 112.676 300.657 114.038 301.43C115.418 302.203 116.983 302.589 118.731 302.589C120.498 302.589 122.062 302.203 123.424 301.43C124.786 300.657 125.853 299.59 126.626 298.228C127.399 296.847 127.786 295.283 127.786 293.535V258.641ZM151.984 315.178V258.641H176.388C180.584 258.641 184.255 259.405 187.402 260.932C190.55 262.46 192.997 264.659 194.746 267.53C196.494 270.401 197.368 273.843 197.368 277.855C197.368 281.903 196.466 285.317 194.663 288.096C192.878 290.875 190.366 292.973 187.126 294.391C183.906 295.808 180.142 296.516 175.836 296.516H161.26V284.59H172.744C174.547 284.59 176.084 284.37 177.354 283.928C178.642 283.468 179.627 282.741 180.308 281.747C181.007 280.753 181.357 279.456 181.357 277.855C181.357 276.235 181.007 274.919 180.308 273.907C179.627 272.876 178.642 272.122 177.354 271.643C176.084 271.146 174.547 270.898 172.744 270.898H167.333V315.178H151.984ZM185.111 289.228L199.245 315.178H182.571L168.769 289.228H185.111ZM238.924 258.641H254.273V294.86C254.273 299.166 253.242 302.893 251.181 306.04C249.138 309.169 246.285 311.589 242.623 313.301C238.961 314.994 234.709 315.84 229.869 315.84C224.992 315.84 220.722 314.994 217.06 313.301C213.398 311.589 210.545 309.169 208.502 306.04C206.478 302.893 205.466 299.166 205.466 294.86V258.641H220.814V293.535C220.814 295.283 221.201 296.847 221.974 298.228C222.747 299.59 223.814 300.657 225.176 301.43C226.556 302.203 228.121 302.589 229.869 302.589C231.636 302.589 233.2 302.203 234.562 301.43C235.924 300.657 236.991 299.59 237.764 298.228C238.537 296.847 238.924 295.283 238.924 293.535V258.641ZM221.146 253.672C219.268 253.672 217.677 253.046 216.37 251.795C215.063 250.543 214.41 249.034 214.41 247.267C214.41 245.501 215.063 243.991 216.37 242.74C217.677 241.489 219.268 240.863 221.146 240.863C222.968 240.863 224.523 241.489 225.811 242.74C227.118 243.991 227.771 245.501 227.771 247.267C227.771 249.034 227.118 250.543 225.811 251.795C224.523 253.046 222.968 253.672 221.146 253.672ZM238.703 253.672C236.826 253.672 235.234 253.046 233.927 251.795C232.62 250.543 231.967 249.034 231.967 247.267C231.967 245.501 232.62 243.991 233.927 242.74C235.234 241.489 236.826 240.863 238.703 240.863C240.525 240.863 242.08 241.489 243.368 242.74C244.675 243.991 245.328 245.501 245.328 247.267C245.328 249.034 244.675 250.543 243.368 251.795C242.08 253.046 240.525 253.672 238.703 253.672ZM315.905 279.842H300.335C300.225 278.554 299.93 277.385 299.452 276.336C298.991 275.287 298.347 274.385 297.519 273.631C296.709 272.858 295.725 272.269 294.565 271.864C293.406 271.441 292.09 271.229 290.618 271.229C288.041 271.229 285.86 271.855 284.075 273.106C282.308 274.358 280.965 276.152 280.045 278.49C279.143 280.827 278.692 283.633 278.692 286.909C278.692 290.369 279.152 293.268 280.072 295.605C281.011 297.924 282.364 299.672 284.13 300.85C285.897 302.01 288.023 302.589 290.507 302.589C291.924 302.589 293.194 302.415 294.317 302.065C295.44 301.697 296.415 301.172 297.243 300.491C298.071 299.81 298.743 298.992 299.258 298.035C299.792 297.059 300.151 295.964 300.335 294.749L315.905 294.86C315.721 297.252 315.049 299.691 313.889 302.175C312.73 304.642 311.083 306.924 308.948 309.022C306.832 311.101 304.209 312.776 301.08 314.046C297.952 315.316 294.317 315.951 290.176 315.951C284.986 315.951 280.33 314.837 276.207 312.61C272.103 310.384 268.855 307.108 266.463 302.783C264.088 298.458 262.901 293.167 262.901 286.909C262.901 280.615 264.116 275.315 266.545 271.008C268.975 266.683 272.251 263.417 276.373 261.208C280.496 258.981 285.097 257.868 290.176 257.868C293.746 257.868 297.031 258.356 300.031 259.331C303.031 260.307 305.663 261.733 307.927 263.61C310.19 265.469 312.012 267.76 313.393 270.484C314.773 273.208 315.61 276.327 315.905 279.842ZM324.423 315.178V258.641H339.772V281.499H340.545L357.55 258.641H375.439L356.335 283.817L375.88 315.178H357.55L344.851 293.976L339.772 300.602V315.178H324.423Z" fill="black"/>
<path d="M56.4365 479.602C57.6173 478.656 59.0851 478.141 60.598 478.141C62.111 478.141 63.5788 478.656 64.7596 479.602L84.7396 495.586C86.3189 496.849 87.2399 498.764 87.2399 500.788V527.501C87.2399 529.267 86.5382 530.961 85.2892 532.21C84.0402 533.459 82.3462 534.161 80.5799 534.161H67.2599C66.5029 534.161 65.7769 533.86 65.2416 533.325C64.7064 532.789 64.4056 532.063 64.4056 531.306V511.326H56.7942V531.306C56.7942 532.063 56.4935 532.789 55.9582 533.325C55.4229 533.86 54.6969 534.161 53.9399 534.161H40.62C38.8536 534.161 37.1596 533.459 35.9106 532.21C34.6616 530.961 33.96 529.267 33.96 527.501V500.785C33.96 498.764 34.8809 496.849 36.4603 495.586L56.4365 479.602ZM61.1936 484.058C61.025 483.924 60.8157 483.85 60.5999 483.85C60.3842 483.85 60.1748 483.924 60.0062 484.058L40.0263 500.042C39.9143 500.132 39.824 500.245 39.7621 500.374C39.7001 500.504 39.6682 500.645 39.6685 500.788V527.501C39.6685 528.026 40.0948 528.452 40.62 528.452H51.0857V508.472C51.0857 507.715 51.3864 506.989 51.9217 506.454C52.4569 505.919 53.1829 505.618 53.9399 505.618H67.2599C68.0169 505.618 68.7429 505.919 69.2782 506.454C69.8135 506.989 70.1142 507.715 70.1142 508.472V528.452H80.5799C80.8322 528.452 81.0742 528.352 81.2527 528.173C81.4311 527.995 81.5313 527.753 81.5313 527.501V500.785C81.5311 500.642 81.4989 500.501 81.437 500.373C81.375 500.244 81.285 500.131 81.1736 500.042L61.1936 484.058Z" fill="black"/>
<path d="M344.056 38.5312C345.236 37.5853 346.704 37.0698 348.217 37.0698C349.73 37.0698 351.198 37.5853 352.379 38.5312L372.359 54.5151C373.938 55.7786 374.859 57.6929 374.859 59.7176V86.4298C374.859 88.1962 374.157 89.8902 372.908 91.1392C371.659 92.3882 369.965 93.0898 368.199 93.0898H354.879C354.122 93.0898 353.396 92.7891 352.861 92.2538C352.326 91.7185 352.025 90.9925 352.025 90.2355V70.2556H344.413V90.2355C344.413 90.9925 344.113 91.7185 343.577 92.2538C343.042 92.7891 342.316 93.0898 341.559 93.0898H328.239C326.473 93.0898 324.779 92.3882 323.53 91.1392C322.281 89.8902 321.579 88.1962 321.579 86.4298V59.7137C321.579 57.6929 322.5 55.7786 324.079 54.5151L344.056 38.5312ZM348.813 42.9877C348.644 42.853 348.435 42.7797 348.219 42.7797C348.003 42.7797 347.794 42.853 347.625 42.9877L327.645 58.9716C327.533 59.061 327.443 59.1745 327.381 59.3037C327.319 59.4328 327.287 59.5743 327.288 59.7176V86.4298C327.288 86.955 327.714 87.3813 328.239 87.3813H338.705V67.4013C338.705 66.6443 339.006 65.9183 339.541 65.383C340.076 64.8477 340.802 64.547 341.559 64.547H354.879C355.636 64.547 356.362 64.8477 356.897 65.383C357.433 65.9183 357.733 66.6443 357.733 67.4013V87.3813H368.199C368.451 87.3813 368.693 87.281 368.872 87.1026C369.05 86.9242 369.15 86.6822 369.15 86.4298V59.7137C369.15 59.5711 369.118 59.4304 369.056 59.302C368.994 59.1735 368.904 59.0606 368.793 58.9716L348.813 42.9877Z" fill="black"/>
</svg>
