<svg width="153" height="154" viewBox="0 0 153 154" fill="none" xmlns="http://www.w3.org/2000/svg">
<rect x="10.5723" y="22.0815" width="131.417" height="109.25" fill="white"/>
<path d="M27.0938 2.82568C12.1125 2.82568 0 14.9382 0 29.9194V124.907C0 139.888 12.1125 152.001 27.0938 152.001H125.906C140.887 152.001 153 139.888 153 124.907V29.9194C153 14.9382 140.887 2.82568 125.906 2.82568H27.0938ZM99.195 35.5294H112.136C112.455 35.4657 112.71 35.7207 112.774 35.9757V96.7932C112.774 97.9407 112.837 99.2157 112.901 100.618C113.029 101.957 113.093 103.232 113.156 104.316C113.156 104.762 112.965 105.144 112.519 105.336C109.204 106.738 105.698 107.758 102.128 108.396C98.94 108.969 95.625 109.288 92.31 109.288C87.5925 109.352 82.875 108.396 78.6037 106.419C74.5875 104.571 71.2725 101.511 68.9775 97.7494C66.6187 93.8607 65.4713 89.0157 65.4713 83.2144C65.4075 78.4969 66.6187 73.8432 68.9775 69.7632C71.4 65.6194 74.9062 62.1769 79.1137 59.8819C83.5762 57.3957 88.9312 56.1844 95.2425 56.1844C95.5612 56.1844 96.0075 56.1844 96.5812 56.2482C97.155 56.3119 97.7925 56.3119 98.5575 56.3757V36.2307C98.5575 35.7844 98.7488 35.5294 99.195 35.5294ZM42.2663 41.0119H54.6975C55.08 40.9482 55.4625 41.2032 55.5263 41.6494C55.59 41.7132 55.59 41.7769 55.59 41.8407V107.248C55.59 107.949 55.2712 108.268 54.6975 108.268H42.2025C41.6287 108.268 41.3737 107.949 41.3737 107.248V41.8407C41.3737 41.2669 41.6925 41.0119 42.2663 41.0119ZM94.7325 68.0419C92.2462 68.0419 89.76 68.5519 87.5287 69.6994C85.3612 70.7832 83.5125 72.3769 82.11 74.4169C80.7075 76.4569 80.0063 79.1982 80.0063 82.5132C79.9425 84.7444 80.325 86.9757 81.09 89.0794C81.7275 90.8007 82.6838 92.3307 83.9588 93.6057C85.17 94.7532 86.6363 95.6457 88.2938 96.1557C90.015 96.7294 91.8 96.9844 93.585 96.9844C94.5413 96.9844 95.4338 96.9207 96.2625 96.8569C97.0913 96.9207 97.8563 96.7932 98.5575 96.5382V68.4882C97.3046 68.1889 96.0206 68.0391 94.7325 68.0419Z" fill="#222222"/>
</svg>
