<svg width="25" height="24" viewBox="0 0 25 24" fill="none" xmlns="http://www.w3.org/2000/svg">
<path d="M21.4675 0.236328C22.1676 0.236328 22.8391 0.514443 23.3341 1.00949C23.8291 1.50454 24.1073 2.17596 24.1073 2.87607V21.3542C24.1073 22.0543 23.8291 22.7258 23.3341 23.2208C22.8391 23.7159 22.1676 23.994 21.4675 23.994H2.98935C2.28925 23.994 1.61782 23.7159 1.12277 23.2208C0.627724 22.7258 0.349609 22.0543 0.349609 21.3542L0.349609 2.87607C0.349609 2.17596 0.627724 1.50454 1.12277 1.00949C1.61782 0.514443 2.28925 0.236328 2.98935 0.236328L21.4675 0.236328ZM20.8076 20.6943V13.699C20.8076 12.5578 20.3543 11.4634 19.5473 10.6565C18.7404 9.84955 17.646 9.39622 16.5048 9.39622C15.3829 9.39622 14.0763 10.0826 13.4427 11.1121V9.647H9.76028L9.76028 20.6943H13.4427L13.4427 14.1873C13.4427 13.1711 14.261 12.3395 15.2773 12.3395C15.7674 12.3395 16.2374 12.5342 16.5839 12.8807C16.9305 13.2273 17.1252 13.6973 17.1252 14.1873V20.6943H20.8076ZM5.4707 7.5748C6.05879 7.5748 6.62279 7.34119 7.03863 6.92535C7.45447 6.50951 7.68809 5.94551 7.68809 5.35742C7.68809 4.12994 6.69818 3.12684 5.4707 3.12684C4.87912 3.12684 4.31176 3.36185 3.89345 3.78016C3.47513 4.19848 3.24012 4.76584 3.24012 5.35742C3.24012 6.5849 4.24322 7.5748 5.4707 7.5748ZM7.30532 20.6943V9.647H3.64928L3.64928 20.6943H7.30532Z" fill="white"/>
</svg>
