<svg width="29" height="24" viewBox="0 0 29 24" fill="none" xmlns="http://www.w3.org/2000/svg">
<path d="M1.56738 5.05808C1.56738 4.30944 1.86478 3.59147 2.39414 3.06211C2.9235 2.53274 3.64147 2.23535 4.39011 2.23535L24.1492 2.23535C24.8978 2.23535 25.6158 2.53274 26.1451 3.06211C26.6745 3.59147 26.9719 4.30944 26.9719 5.05808V19.1717C26.9719 19.9203 26.6745 20.6383 26.1451 21.1677C25.6158 21.697 24.8978 21.9944 24.1492 21.9944H4.39011C3.64147 21.9944 2.9235 21.697 2.39414 21.1677C1.86478 20.6383 1.56738 19.9203 1.56738 19.1717L1.56738 5.05808Z" stroke="white" stroke-width="3.13404" stroke-linecap="round" stroke-linejoin="round"/>
<path d="M1.56738 5.05811L14.2696 13.5263L26.9719 5.05811" stroke="white" stroke-width="3.13404" stroke-linecap="round" stroke-linejoin="round"/>
</svg>
