<svg width="153" height="154" viewBox="0 0 153 154" fill="none" xmlns="http://www.w3.org/2000/svg">
<rect x="22.1973" y="25.6232" width="114" height="104.5" fill="white"/>
<path d="M62.7938 54.5035C60.435 53.5473 57.885 53.1648 55.2713 53.2285C53.6138 53.2285 52.1475 53.2285 50.9362 53.2923C49.6612 53.2285 48.7687 53.2923 48.3225 53.356V74.776C49.215 74.8398 50.0437 74.9035 50.8087 74.9035H54.1875C56.6737 74.9035 59.16 74.521 61.5187 73.756C63.5587 73.1823 65.3438 71.971 66.7463 70.3773C68.085 68.7835 68.7225 66.616 68.7225 63.811C68.7862 61.8348 68.2763 59.8585 67.2563 58.1373C66.1933 56.4821 64.63 55.2091 62.7938 54.5035ZM125.906 2.73853H27.0938C12.1125 2.73853 0 14.851 0 29.8323V124.813C0 139.795 12.1125 151.907 27.0938 151.907H125.906C140.887 151.907 153 139.795 153 124.813V29.8323C153 14.851 140.887 2.73853 125.906 2.73853ZM78.7886 77.0073C76.245 80.5773 72.675 83.2548 68.5312 84.7848C64.1962 86.3785 59.415 86.9523 54.1875 86.9523C52.6575 86.9523 51.6375 86.9523 51 86.8885C50.3625 86.8248 49.47 86.8248 48.2588 86.8248V107.282C48.3225 107.728 48.0038 108.117 47.5575 108.181H35.19C34.68 108.181 34.425 107.92 34.425 107.346V41.7535C34.425 41.3073 34.6162 41.0523 35.0625 41.0523C36.1463 41.0523 37.1662 41.0523 38.6325 40.9885C40.1625 40.9248 41.7563 40.9248 43.4775 40.861C45.1988 40.7973 47.0475 40.7973 49.0238 40.7335C51 40.6698 52.9125 40.6698 54.825 40.6698C60.0525 40.6698 64.3875 41.3073 67.9575 42.646C71.145 43.7298 74.0775 45.5148 76.5 47.8735C78.54 49.9135 80.1337 52.3998 81.1537 55.141C82.1036 57.8185 82.6136 60.5598 82.6136 63.4285C82.62 68.911 81.345 73.4373 78.7886 77.0073ZM123.994 101.806C122.209 104.356 119.716 106.326 116.854 107.486C113.73 108.819 109.905 109.513 105.309 109.513C102.382 109.513 99.5074 109.265 96.645 108.691C94.4137 108.302 92.1825 107.607 90.1425 106.651C89.6963 106.402 89.3711 105.956 89.4349 105.446V94.3536C89.4349 94.1688 89.505 93.9074 89.6962 93.7799C89.8811 93.6524 90.0787 93.7161 90.27 93.8436C92.7562 95.3099 95.37 96.3363 98.175 96.9674C100.591 97.6049 103.141 97.9236 105.697 97.9236C108.12 97.9236 109.841 97.5985 110.989 97.0248C112.009 96.5785 112.71 95.4948 112.71 94.3473C112.71 93.4484 112.2 92.626 111.18 91.7973C110.16 90.9749 108.063 90.0186 104.939 88.7946C101.688 87.6471 98.6978 86.1171 95.8864 84.211C93.8915 82.7823 92.2353 80.9323 91.035 78.7923C90.0218 76.7753 89.5204 74.5399 89.5751 72.2834C89.5751 69.5421 90.3401 66.9284 91.749 64.5696C93.3428 62.0196 95.6951 59.9797 98.4364 58.7047C101.426 57.181 105.187 56.4798 109.714 56.4798C112.327 56.4798 115.005 56.671 117.619 57.0535C119.531 57.3085 121.38 57.8185 123.101 58.5198C123.35 58.5835 123.611 58.8385 123.739 59.0935C123.802 59.3485 123.866 59.6035 123.866 59.8585V70.2498C123.866 70.5048 123.739 70.7598 123.547 70.8873C122.974 71.0148 122.655 71.0148 122.4 70.8873C120.488 69.8673 118.447 69.166 116.28 68.7198C113.921 68.2098 111.563 67.891 109.14 67.891C107.865 67.8273 106.526 68.0185 105.309 68.3373C104.486 68.5285 103.779 68.9748 103.332 69.6123C103.014 70.1223 102.822 70.7598 102.822 71.3335C102.822 71.9073 103.077 72.481 103.466 72.991C104.04 73.6923 104.799 74.266 105.634 74.7123C107.094 75.4773 108.63 76.1785 110.154 76.816C113.602 77.9635 116.917 79.5573 119.977 81.4698C122.081 82.8021 123.802 84.5935 125.007 86.761C126.027 88.7883 126.537 91.0323 126.474 93.3209C126.544 96.3235 125.651 99.3134 123.994 101.806Z" fill="#222222"/>
</svg>
