<?xml version="1.0" encoding="UTF-8"?>
<svg id="Ebene_2" data-name="Ebene 2" xmlns="http://www.w3.org/2000/svg" viewBox="0 0 182.17 135.18">
  <defs>
    <style>
      .cls-1 {
        fill: none;
      }

      .cls-1, .cls-2 {
        stroke: #000;
        stroke-miterlimit: 10;
        stroke-width: 1.5px;
      }

      .cls-2 {
        fill: #fff;
      }
    </style>
  </defs>
  <g id="Ebene_2-2" data-name="Ebene 2">
    <g>
      <g>
        <path class="cls-2" d="m69.06,90.49c-1.18,1.18-2.39,2.32-3.63,3.42-3.44,3.06-7.13,5.84-10.98,8.36-1.85,1.21-3.92,2.6-4.33,4.77-.82,4.37-.3,8.89,1.58,12.92,1.88,4.03,4.24,8.11,4.06,12.55-2.7-4.78-5.4-9.56-8.1-14.33-.91-1.62-1.83-3.24-2.55-4.95-1.2-2.84-2.74-4.85-2.86-8.33-.04-1.14.36-2.99,1.02-3.93,1.19-1.68,3.79-1.18,5.69-1.96,3.07-1.25,3.64-5.39,5.98-7.75"/>
        <path class="cls-2" d="m52.38,15.8c-4.1,1.96-8.39,4.62-9.72,8.97-.86,2.8-.27,5.93,1.21,8.45,1.49,2.52,3.81,4.48,6.38,5.9,2.78,1.53,5.88,2.46,9.04,2.72,2.42.2,4.95-.03,7.06-1.22,1.82-1.03,3.2-2.71,4.19-4.55,1.81-3.38,2.37-7.45,1.35-11.15-2.41-8.77-11.49-12.94-19.51-9.11Z"/>
        <path class="cls-2" d="m121.74,90.7c-4.55.28-9.2.59-13.41,2.35-1.2.5-2.39,1.13-3.69,1.25-1.46.14-2.9-.37-4.28-.87-5.23-1.9-10.47-3.8-15.7-5.69-2.16-.78-5.55-3.49-7.54-4.61.82-.84,1.78-1.24,2.69-1.98.92-.74,1.54-1.55,1.71-2.72,6.02-1.31,12.25-1.63,18.37-.94-6.85-.96-13.69-1.92-20.54-2.89-1.06-.15-2.19-.32-3.02-1.01-1.25-1.03-1.43-2.85-1.58-4.46-.57-6.29-2.06-12.5-4.42-18.35-.76-1.89-1.69-3.84-3.37-5-2.34-1.61-5.45-1.26-8.26-.85-2.7.4-5.71,1.97-8.31,1.15-3.86-1.22-7.5-4.31-11.44-3.37-3.5.84-5.45,4.56-6.45,8.01-2.45,8.52-.83,25.84-4.32,33.99-.3.7-.64,1.4-1.18,1.93-.84.84-2.03,1.17-3.17,1.5-5.89,1.73-11.1,3.3-17.47,6.16,5.85-1.17,10.86-1.34,15.93-2.71,2.24-.6,4.54-.88,6.82-1.32,1.98-.38,3.36-1.42,4.03-3.64.46-1.54-.13-6.38.62-10.31.93-4.84,1.5-14.5,3.64-18.95-1.69,2.76-.54,6.6,2.37,8.01-2.29,1.58-1.83,4.98-1.9,7.76-.08,3.36-1.32,6.58-1.76,9.91-.44,3.33.13,7.16,2.81,9.19,1.63,1.23,3.76,1.58,5.8,1.61,3.13.06,6.56-.69,8.5-3.15,4.98,1.28,10.29,1.27,15.26-.03.47-.12.95-.26,1.44-.24.52.02,1.01.22,1.49.41,8.51,3.37,17.21,6.24,26.06,8.59-.62,2.16,1.99,4.26,4.2,4.67,3.84.71,7.63-1.45,10.61-3.98s5.65-5.57,9.21-7.17c2.37-1.07,4.99-1.42,7.56-1.77,4.33-.58,8.66-1.17,12.98-1.75-6.77.42-13.54.84-20.31,1.26Zm-55.44-15.49c-.78-.53-1.56-1.05-2.34-1.58-.29-.2-.6-.43-.66-.77-.06-.36.2-.69.42-.98.93-1.21,1.58-2.64,1.89-4.13.28-1.37.31-2.85,1.05-4.04.9,3.97,2.52,7.78,4.75,11.18-1.72.3-3.38.11-5.11.33Z"/>
        <path class="cls-2" d="m81.43,78.55c-.51-1.25-1.09-2.58-2.23-3.29-.88-.54-1.95-.62-2.98-.65-1.95-.05-3.91.06-5.85.2-3.83.28-9.38.64-11.66,5.66"/>
        <path class="cls-2" d="m78.11,83.6c-2.11-.97-2.32-1.56-3.39-2.21-1.58-.95-3.3-1.87-5.14-1.84-1.08.02-2.09.58-3.17.65-8.17.53-13.57.34-17.48-.02"/>
        <path class="cls-2" d="m45.58,73.84c.63-.72,1.7-.91,2.64-.77s1.83.55,2.75.83c2.61.8,6.76-.32,9.19-1.56"/>
        <path class="cls-2" d="m66.76,55.11l-.28,6.15c-.04.91-.09,1.83-.36,2.7-.15.49-.4.97-.81,1.28-.46.35-1.07.42-1.65.43-2.52.03-5.03-1.04-6.76-2.87"/>
        <path class="cls-2" d="m39.34,65.08c1.89.72,3.92,1.18,5.92.95s3.98-1.24,5.07-2.94"/>
        <path class="cls-2" d="m41.96,60.04c-.08-.11-.26.08-.18.19s.26.08.36,0c-.02-.06-.12-.06-.14,0"/>
        <path class="cls-2" d="m61.3,60.82c-.2-.06-.41-.08-.61-.04.08.25.45.33.63.15"/>
      </g>
      <path class="cls-1" d="m103.22,77.96h3.79"/>
      <path class="cls-1" d="m109.47,77.91c1.48-.18,3.01-.14,4.47.1"/>
      <path class="cls-1" d="m116.57,78.15c6.43-.3,63.32,1.52,64.82-14.87.62-6.73-8.65-11.07-15.39-11.69-5.67-.52-11.15,1.83-16.43,3.95s-11.02,4.07-16.56,2.77c-3.45-.81-6.52-2.86-8.93-5.46-1.03-1.11-1.97-2.38-2.29-3.86-.24-1.1-.12-2.26.15-3.36.57-2.28,1.81-4.39,3.52-5.99"/>
      <path class="cls-2" d="m122.31,28.5c-1.49-1.06-3.4-2.76-4.8-4.05-2.29-2.1-18.21-18.81-23.34-23.62-.25-.24-.63.09-.43.37,2.97,4.12,10.81,14.75,21.35,26.25.91.99,2.56,3.47,3.05,4.32,9.22,16.09,20.04,17.54,20.75,14.4.52-2.29-4.84-9.28-16.59-17.67Zm-.15,4s8.86,4.71,11.96,10.05c2.66,4.57-7.15.02-11.96-10.05Z"/>
      <path class="cls-1" d="m126.79,39.29c5.66-2.94,12.43-2.16,18.81-2.19,7.2-.03,14.38-1.21,21.21-3.48,2.84-.94,5.92-2.37,6.92-5.19"/>
    </g>
  </g>
</svg>