<svg width="153" height="153" viewBox="0 0 153 153" fill="none" xmlns="http://www.w3.org/2000/svg">
<g clip-path="url(#clip0_314_47)">
<rect x="21.9062" y="32.2903" width="114" height="95.7916" fill="white"/>
<path d="M0 0V153H153V0H0ZM32.742 44.7525C41.769 44.7525 52.8997 52.1347 53.703 64.3365C53.703 64.3365 55.1183 88.6252 55.1565 90.5377C55.9215 88.5105 65.3692 64.107 65.3692 64.107C69.1177 54.162 76.1558 44.7525 89.3903 44.7525C89.3903 44.7525 95.0513 88.4723 95.2808 90.4995C95.8545 88.434 103.619 64.107 103.619 64.107C107.329 54.1237 114.559 44.7525 128.291 44.7525L108.821 92.6033C104.805 102.204 97.308 110.963 83.4233 110.963C83.4233 110.963 77.5327 69.9975 77.4562 69.0795C77.112 70.0358 68.8117 91.5705 68.8117 91.5705C64.9102 101.554 57.4515 110.925 43.605 110.963L32.742 44.7525Z" fill="#222222"/>
</g>
<defs>
<clipPath id="clip0_314_47">
<rect width="153" height="153" rx="28" fill="white"/>
</clipPath>
</defs>
</svg>
