<svg width="29" height="30" viewBox="0 0 29 30" fill="none" xmlns="http://www.w3.org/2000/svg">
<path d="M26.3754 7.51111C22.1316 0.968534 13.4671 -0.976556 6.74771 3.09045C0.205133 7.15746 -1.91678 15.9988 2.32705 22.5414L2.6807 23.0718L1.26609 28.3766L6.57088 26.962L7.10136 27.3157C9.40011 28.5535 11.8757 29.2608 14.3512 29.2608C17.0036 29.2608 19.656 28.5535 21.9548 27.1388C28.4974 22.895 30.4424 14.2305 26.3754 7.51111ZM22.6621 21.1267C21.9548 22.1877 21.0706 22.895 19.8329 23.0718C19.1256 23.0718 18.2414 23.4255 14.7049 22.0109C11.6988 20.5963 9.22328 18.2975 7.45502 15.6451C6.39406 14.4073 5.86358 12.8159 5.68675 11.2245C5.68675 9.80985 6.21723 8.57207 7.10136 7.68794C7.45502 7.33428 7.80867 7.15746 8.16232 7.15746H9.04645C9.40011 7.15746 9.75376 7.15746 9.93059 7.86476C10.2842 8.7489 11.1684 10.8708 11.1684 11.0476C11.3452 11.2245 11.3452 11.5781 11.1684 11.7549C11.3452 12.1086 11.1684 12.4623 10.9915 12.6391C10.8147 12.8159 10.6379 13.1696 10.4611 13.3464C10.1074 13.5232 9.93059 13.8769 10.1074 14.2305C10.8147 15.2915 11.6988 16.3524 12.583 17.2366C13.6439 18.1207 14.7049 18.828 15.9427 19.3585C16.2963 19.5353 16.65 19.5353 16.8268 19.1817C17.0036 18.828 17.8878 17.9439 18.2414 17.5902C18.5951 17.2366 18.7719 17.2366 19.1256 17.4134L21.9548 18.828C22.3084 19.0048 22.6621 19.1817 22.8389 19.3585C23.0157 19.889 23.0157 20.5963 22.6621 21.1267Z" fill="white"/>
</svg>
