<svg width="153" height="153" viewBox="0 0 153 153" fill="none" xmlns="http://www.w3.org/2000/svg">
<g clip-path="url(#clip0_314_63)">
<rect x="10.5723" y="21.207" width="128.25" height="111.625" fill="white"/>
<path d="M27.0938 1.91284C12.1125 1.91284 0 14.0253 0 29.0066V123.994C0 138.975 12.1125 151.088 27.0938 151.088H125.906C140.887 151.088 153 138.975 153 123.994V29.0066C153 14.0253 140.887 1.91284 125.906 1.91284H27.0938ZM116.79 34.6166H129.731C130.05 34.5528 130.305 34.8078 130.369 35.0628V95.8803C130.369 97.0278 130.432 98.3028 130.496 99.7054C130.624 101.044 130.688 102.319 130.751 103.403C130.751 103.849 130.56 104.232 130.114 104.423C126.799 105.825 123.293 106.845 119.723 107.483C116.471 108.057 113.22 108.375 109.905 108.375C105.187 108.439 100.47 107.483 96.1988 105.507C92.1825 103.658 88.8675 100.598 86.5725 96.8366C84.2137 92.9478 83.0662 88.1028 83.0662 82.3016C83.0031 77.5394 84.24 72.8502 86.644 68.7388C89.0479 64.6275 92.5277 61.2497 96.7088 58.9691C101.171 56.4828 106.526 55.2716 112.838 55.2716C113.156 55.2716 113.602 55.2716 114.176 55.3353C114.75 55.3991 115.387 55.3991 116.152 55.4628V35.3178C116.152 34.8716 116.344 34.6166 116.79 34.6166ZM23.46 40.1628H37.9312C38.25 40.1628 38.5688 40.2266 38.8238 40.2903C39.0788 40.4178 39.27 40.6091 39.4613 40.8641C40.6725 43.6053 42.075 46.3466 43.5412 49.0878C45.0712 51.8291 46.5375 54.5066 48.1313 57.1841C49.6613 59.8616 51.0638 62.5391 52.4025 65.2803H52.53C53.8687 62.4753 55.2713 59.7341 56.6738 57.0566C58.0763 54.3791 59.5425 51.7016 61.0087 49.0241C62.475 46.3466 63.8775 43.6053 65.28 40.9916C65.3437 40.7366 65.4713 40.4816 65.6625 40.3541C65.9148 40.2143 66.2086 40.1691 66.4913 40.2266H79.9425C80.2612 40.1628 80.58 40.3541 80.6437 40.6728C80.7075 40.7366 80.58 40.9916 80.4525 41.1191L61.3275 72.6753L81.7275 106.144C81.855 106.399 81.9188 106.654 81.855 106.909C81.7913 107.164 81.5362 106.973 81.1537 107.037H66.555C65.535 107.037 64.8338 106.973 64.3875 106.335C63.0488 103.658 61.6463 101.044 60.3075 98.3666C58.9688 95.7528 57.5025 93.0753 55.9725 90.3341C54.4425 87.5928 52.9125 84.8516 51.3825 82.0466H51.255C49.9162 84.7878 48.45 87.5291 46.9837 90.2703C45.5175 93.0116 44.0513 95.7528 42.6488 98.4303C41.1825 101.108 39.7163 103.849 38.25 106.463C37.995 107.1 37.485 107.164 36.7837 107.164H22.7587C22.5037 107.164 22.3125 107.292 22.3125 106.973C22.2844 106.853 22.2813 106.73 22.3032 106.609C22.3251 106.488 22.3717 106.373 22.44 106.272L42.2663 73.7591L22.95 41.0553C22.7587 40.8003 22.695 40.5453 22.8225 40.4178C22.95 40.2266 23.205 40.1628 23.46 40.1628ZM112.328 67.1291C109.841 67.1291 107.355 67.6391 105.124 68.7866C102.956 69.8703 101.108 71.4641 99.705 73.5041C98.3025 75.5441 97.6013 78.2853 97.6013 81.6003C97.5375 83.8316 97.92 86.0628 98.685 88.1666C99.3225 89.8878 100.279 91.4178 101.554 92.6928C102.765 93.8403 104.231 94.7328 105.889 95.2428C107.61 95.8166 109.395 96.0716 111.18 96.0716C112.136 96.0716 113.029 96.0078 113.858 95.9441C114.686 96.0078 115.387 95.8803 116.152 95.6253V67.5753C114.9 67.276 113.616 67.1262 112.328 67.1291Z" fill="#222222"/>
</g>
<defs>
<clipPath id="clip0_314_63">
<rect width="153" height="153" fill="white"/>
</clipPath>
</defs>
</svg>
