<?xml version="1.0" encoding="utf-8"?>
<!-- Generator: Adobe Illustrator 27.9.0, SVG Export Plug-In . SVG Version: 6.00 Build 0)  -->
<svg version="1.1" id="Ebene_2_00000124161281487055787770000005735967499512580749_"
	 xmlns="http://www.w3.org/2000/svg" xmlns:xlink="http://www.w3.org/1999/xlink" x="0px" y="0px" viewBox="0 0 207.7 112.1"
	 style="enable-background:new 0 0 207.7 112.1;" xml:space="preserve">
<style type="text/css">
	.st0{fill:#FFFFFF;stroke:#000000;stroke-width:1.5;stroke-miterlimit:10;}
	.st1{fill:none;stroke:#000000;stroke-width:1.5;stroke-miterlimit:10;}
	.st2{stroke:#000000;stroke-width:1.5;stroke-miterlimit:10;}
</style>
<g id="Ebene_2-2">
	<path class="st0" d="M122.5,8.6l-4.1,0.1c-0.1-1.8-2.4-3.2-4-2.3c-0.7,0.3-1.3,1-2,0.8c-1.1-0.2-1.2-1.8-2.2-2.4
		c-1.1,0.5-2.1,1.1-3.3,1.2s-2.4-0.2-3.2-1.2c-0.3-0.4-0.6-1-1.1-1.2c-0.6-0.2-1.3,0.2-1.9,0.3c-1.6,0.3-2.7-1.4-3.4-2.8
		c-1,1.1-2.1,2.1-3.2,3.2c-0.6,0.6-1.4,1.1-2.1,0.8c-0.4-0.2-0.6-0.7-1-0.9c-1.5-0.9-3.3-0.4-5.3-2.2c0,0-3.8,1.4-4.8,3.1
		c-1.6-1.1-3.2-2.1-4.8-3.1c-0.8,1-1.7,2-2.5,3c-0.2,0.2-0.4,0.5-0.8,0.6c-0.3,0-0.5-0.1-0.7-0.3c-0.8-0.5-1.7-1.1-2.5-1.6
		c-0.3,1.1-1.2,2-2.3,2.2s-2.3-0.2-3-1c-1,1.3-1.7,2.8-2.3,4.4l-1.3-0.1c-1,5.2-2.1,10.5-1.6,15.8c0.2,2.7,0.4,7.8,1.1,10.2
		c0.5,1.9-0.2,1.9,0.5,3.7c0.5,1.7,1.7,3.1,2.8,4.5c3.2,4,6.5,8.1,10.9,10.8c2.9,1.8,6.1,2.8,9.3,3.8c2.5,0.8,5,1.5,7.6,1.3
		c2.4-0.2,4.7-1.1,7-1.7c3.9-1.1,8.2-1.5,11.3-4c3.5-2.9,4.8-7.9,8.4-10.5c2.3-1.7,4.5-2.3,5.5-5.2c1.1-3.2,1.8-6.5,2.1-9.9
		s0.1-6.8-0.4-10.1C125,17.1,123.4,8.6,122.5,8.6L122.5,8.6z"/>
	<path class="st1" d="M61,10.4c0.6,1.2,1,2.4,1.3,3.7c1.2-1.1,2.8-1.9,4.4-2.2c0.7,1.1,1.4,2.2,2.2,3.3c0.1,0.2,0.3,0.4,0.5,0.5
		c0.3,0.2,0.7,0.1,1-0.1c1.2-0.5,2.4-1,3.6-1.7c1.1,1.5,3.2,2.8,3.2,2.8c1.7-0.2,2.8-1.8,3.7-3.2c1.3,0.7,2.7,1.4,3.4,2.7
		c0.6,1.1,0.9,2.3,1.3,3.5c0.1,0.4,3.7,0.3,3.9-0.2c0.5-1.5,1-2.9,1.4-4.4c1.1,1.3,2.5,2.4,4,3.3c0.9-1.1,1.8-2.3,2.5-3.6
		c0.5,1.3,1.2,2.6,2.2,3.6l5.6-3.5c1.2,0.9,3.3,3.3,3.3,3.3c0.1-0.3,0.3-2.6,1.2-3.5l3.5,2.9c0.2-0.4,3.5-6,3.5-6
		c0.5,1.1,1.7,1.4,2.8,2c0.2,0.1,0.5,0.2,0.7,0.2c0.3-0.1,0.6-0.4,0.7-0.8c0.7-1.4,1.3-2.8,2-4.1"/>
	<path class="st1" d="M75.6,15.6c0,0-0.3-5.1,6.7-7.1c7-2,12.4-1.6,17.8-0.6c8.3,1.6,12,5.2,11.2,7.8"/>
	<path class="st2" d="M91.5,40.5c14.1,0,34.1-12.5,34.1-12.5s2.2,15.9-1,25.2c-5.2,15.2-12.7,22.4-24.9,25c0,0-0.4,0.5-0.1,5.2
		c0.2,2.6,0.3,11.6,8.8,15.2s7.6,9.2,7.6,9.2H65c0,0,1.3-7,7.9-8.9c5.2-1.4,8.9-3.9,10.2-10.2s1.5-10.6,1.5-10.6S64.2,71.4,60,52.6
		C56.6,37.7,59.4,30,59.4,30S77.4,40.5,91.5,40.5z"/>
	<path class="st0" d="M1.5,88.4c0,0,5.2,10,10.3,13s9.5,3.5,13,3.5s10.6-3.8,13-6.1c2.8-2.7,7.6-8.1,9-11.7c0.2-0.7,0.7-2.1,0.8-3
		c-1.2,0.3-4,0.4-4,0.4c-0.3-1.3-0.7-3-1.3-4.2c-1.5,0.8-2.4,1.4-4.1,1.8c-1.6-1.1-3.6-2.3-3.8-2.4c-1.2-0.6-2.5,0.9-3.7,1.2
		c-0.8-1.3-1.8-2.4-2.9-3.4c-1.2,0.5-2.3,1.2-3.3,2.1c-1.2-0.8-4.1-2.8-4.5-2.8c0,0-2.2,2.3-3.1,2.8c0,0-2.9-1.5-4.6-1.7
		c-0.3,1-0.8,2-1.4,2.8C8.7,81,6.4,80.8,4.4,80l-0.1,3.3c0,0.2,0,0.4-0.2,0.6C3.9,84,3.7,84,3.5,84c-0.9-0.2-1.8-0.3-2.7-0.4
		C0.8,85.3,0.9,86.7,1.5,88.4L1.5,88.4z"/>
	<path class="st1" d="M1.2,87.6c0.8,1,2.6,1.5,3.9,1.3s2.4-0.9,3.5-1.5c0.1,1,0.5,1.9,1.1,2.7c2-0.6,4-1.1,6-1.7
		c0.3-0.1,0.6-0.2,0.9-0.1c0.3,0.1,0.6,0.3,0.8,0.6c1.2,1.3,2.5,2.6,3.8,3.8c1.4-1,2.7-1.9,4.1-2.9c0.2-0.1,0.4-0.3,0.7-0.3
		c0.3,0,0.5,0.1,0.7,0.2c0.7,0.4,1.3,0.9,1.8,1.5c1.3-0.8,2.6-1.5,3.8-2.3l2.6,2.3l2.7-2.2l2.2,2.1c0.6-0.7,1.1-1.5,1.5-2.4l1.8,0.8
		c1.5-0.8,3.4-2.6,4.4-4"/>
	<path class="st1" d="M1.4,88c0-0.7,2-2.3,2.3-2.5c0.3-0.1,0.6-0.3,0.9-0.5c1.4-0.9,2.9-1.7,4.5-2.3c0.9-0.3,1.8-0.6,2.7-0.7
		c0.9-0.1,1.9,0,2.8-0.1c2.1-0.2,4.2-1.5,6.3-1.1c1.3,0.3,2.4,1.2,3.7,1.3c0.5,0,1-0.1,1.4-0.1c1-0.1,2,0.3,3,0.6
		c0.2,0.1,0.4,0.1,0.7,0.2c0.5,0.2,1.1,0.3,1.6,0.5c0.6,0.2,1.2,0.4,1.8,0.5c1.1,0.2,2.3,0,3.4-0.1c1-0.1,2.1,0,3.1,0.3
		c2.1,0.6,3.9,2,5.6,3.3"/>
	<path class="st0" d="M155.5,47.5c1.4,17.9-0.8,36-0.1,53.9c0.1,1.6,0.2,3.3,1.1,4.6c1.3,1.8,3.7,2.3,5.9,2.7
		c2.8,0.5,5.5,0.9,8.3,1.4c4.9,0.8,9.8,1.6,14.7,1.1c4.1-0.4,8-1.8,11.8-3.3c1.4-0.6,2.8-1.3,3.9-2.3c1.4-1.3,1.2-3.6,1.5-6.9
		c1.6-19,1.4-38.3,3-57.6c0-0.5,0-1.1-0.3-1.5c-0.3-0.4-0.8-0.5-1.3-0.6c-7.6-1.2-15.5-0.3-23.2,0.1c-6.9,0.4-13.1-0.2-19.8-1.6
		S155.2,42.5,155.5,47.5z"/>
	<path class="st2" d="M157.6,37.6c1.5,0.6,6.6,0.8,8.3,1c12.1,1.2,25,1.7,37.1,0.9c0.7,0,1.5-0.1,2.1-0.5c1.1-0.7,1.5-2.2,1.6-3.5
		c0.4-3.3,0.5-7.1-1.9-9.5c-1.2-1.2-2.8-1.8-4.3-2.4c-11-3.7-22.9-2.8-34.4-1.9c-1.6,0.1-5.3,0.5-6.9,0.9c-2.8,0.7-3.9,2.4-4.3,5.1
		C154.2,32.4,154.7,36.5,157.6,37.6L157.6,37.6z"/>
	<path class="st0" d="M206.3,28.1c0.6,1.4-0.1,3.1-1.3,4.1c-1.2,1-2.8,1.3-4.3,1.5c-9.8,1.5-19.9,0.4-29.8-0.8
		c-4.1-0.5-8.2-0.9-12-2.4c-1.1-0.4-2.3-1-3-2s-0.6-2.9,0.1-3.8c0,0,0.9-2.3,5.4-2.8s16.7-1.2,19.2-1.2s11.3,0.3,15,1.2
		S204.5,24.1,206.3,28.1L206.3,28.1z"/>
	<path class="st1" d="M172.8,55.5c0.1-1,0.2-2.2,0.9-3c0.8-0.8,2-1,3.1-1.1c1.2-0.1,2.4-0.2,3.6,0c1.6,0.2,3.2,0.6,4.8,0.6
		c3.1-0.1,6.1-2.1,7.2-5c0.6,2.1,1.2,4.2,1,6.4c-0.1,1.2-0.5,2.4-0.9,3.5c-0.4,1-0.8,2-1.6,2.6c-1,0.8-2.3,0.8-3.6,0.7
		c-1.8-0.1-3.6-0.3-5.4-0.7c-1-0.2-2-0.5-3-0.4c-1.2,0-2.4,0.4-3.5,1c-1,0.5-2,1.7-3,1.9c-0.3-0.9,0.1-2.3,0.1-3.2
		C172.7,57.7,172.8,56.6,172.8,55.5L172.8,55.5z"/>
	<path class="st1" d="M192.1,58.2c4.1-0.4,8.2-0.5,12.3-0.2"/>
	<path class="st1" d="M172.3,57l-16.1,0.4"/>
	<path class="st1" d="M156.1,54.7c5.6,0.9,11.2-0.5,16.9,0"/>
	<path class="st1" d="M192.8,56.2c3.9-0.4,7.8-0.5,11.6-0.2"/>
	<path class="st1" d="M168.3,77.6c-0.1-1-0.3-1.9-0.6-2.8c-0.3-1-0.3-2.1-0.1-3.2c0.1-0.7,0.4-1.3,0.9-1.7c0.5-0.3,1.1-0.5,1.6-0.4
		c0.7,0.1,1.1,0.8,1.2,1.4"/>
	<path class="st1" d="M173.2,70.6c-0.3,0.6-0.4,1.2-0.5,1.8c-0.1,1-0.2,2-0.2,3c0,0.6,0,1.2,0.4,1.7c0.6,0.7,1.8,0.6,2.5,0
		s1-1.6,1.2-2.5c0.3-1.4,0.3-5.6-2-5.3C174.1,69.5,173.5,70.1,173.2,70.6z"/>
	<path class="st1" d="M178.4,70.2c0.3,2.6,1.3,7.6,1.3,7.6c0-1.3,0-2.6,0-3.9c0-0.9,0-1.8,0.3-2.7c0.1-0.4,0.4-0.8,0.7-1.1
		s0.8-0.4,1.2-0.2c0.5,0.2,0.8,0.9,0.9,1.4c0.4,1.8,0.8,3.5,1.1,5.3c0.1-1.1,0-2.2,0-3.3s0.3-2.2,1-3.1c0.1-0.2,0.3-0.3,0.5-0.4
		c0.1,0,0.3,0,0.4,0.1c0.8,0.3,1.5,1,1.8,1.9c0.2,0.5,0.2,1,0.2,1.5c0.1,1.2,0,3.2,0.1,4.5"/>
	<g>
		<path class="st1" d="M192.1,71c-0.9,0.4-1.5,1.2-1.8,2.1S190,75,190,76c0,0.4,0,0.8,0.2,1.2s0.4,0.7,0.9,0.8
			c0.4,0.1,0.9-0.1,1.3-0.4C193.9,76.3,196.3,69.2,192.1,71L192.1,71z"/>
		<path class="st1" d="M194.5,70.2c0.1,2.5,0.5,5.1,1.1,7.5"/>
	</g>
	<g>
		<path class="st1" d="M197.8,67.4c-0.2,3,0,6.1,0.5,9.1c0.1,0.6,0.3,1.3,0.8,1.7s1.4,0.3,1.5-0.3"/>
		<path class="st1" d="M196.1,72.3h4.1"/>
	</g>
	<g>
		<path class="st1" d="M159.7,76.7c0.2-2.8,0.5-5.7,1.9-8.1c0.4-0.6,0.9-1.3,1.6-1.2c0.7,0.1,1.1,1.1,1.3,1.9
			c0.7,2.8,1.4,5.7,1.9,8.6"/>
		<path class="st1" d="M158.9,72.7l7.8-0.3"/>
	</g>
	<path class="st1" d="M155.9,86.3c8,1.6,16.2,1.7,24.4,1.7c2.6,0,5.3,0,7.9,0.1c5.1,0,10.1,0.1,15.1-0.6"/>
	<path class="st1" d="M155.8,88.9c15.8,0.6,31.6,1,47.4,1.3"/>
	<g>
		<ellipse class="st2" cx="163.6" cy="25.2" rx="1.4" ry="0.8"/>
		<ellipse class="st2" cx="169.4" cy="27.3" rx="1.2" ry="0.7"/>
		<ellipse class="st2" cx="168.6" cy="24.3" rx="1.4" ry="1"/>
		<ellipse class="st2" cx="174.9" cy="23.4" rx="1.5" ry="0.8"/>
		
			<ellipse transform="matrix(0.9973 -7.376038e-02 7.376038e-02 0.9973 -1.7207 12.8158)" class="st2" cx="172.7" cy="29.7" rx="1.3" ry="0.7"/>
		<ellipse class="st2" cx="174.7" cy="26.6" rx="1.2" ry="1"/>
		<ellipse class="st2" cx="181.6" cy="23.8" rx="1.6" ry="0.8"/>
		<ellipse class="st2" cx="187.1" cy="24.5" rx="1.3" ry="1.1"/>
		<ellipse class="st2" cx="181" cy="27.9" rx="1.2" ry="0.8"/>
		<ellipse class="st2" cx="185.8" cy="28.3" rx="1.4" ry="0.7"/>
		<ellipse class="st2" cx="183" cy="31.6" rx="1.8" ry="0.8"/>
		<ellipse class="st2" cx="177.3" cy="29.9" rx="1.2" ry="0.8"/>
		<ellipse class="st2" cx="189.3" cy="31" rx="1.1" ry="0.7"/>
		<ellipse class="st2" cx="194.1" cy="29.9" rx="1.3" ry="1.1"/>
		<ellipse class="st2" cx="198.6" cy="30.6" rx="1.3" ry="0.8"/>
		<ellipse class="st2" cx="202.6" cy="29.2" rx="1.8" ry="1"/>
		<ellipse class="st2" cx="198.5" cy="26.6" rx="1.2" ry="0.8"/>
		<ellipse class="st2" cx="191.6" cy="26.8" rx="1.6" ry="0.9"/>
		<ellipse class="st2" cx="194.6" cy="24.3" rx="1" ry="0.8"/>
		<ellipse class="st2" cx="163.4" cy="28.3" rx="1.4" ry="0.6"/>
		<ellipse class="st2" cx="158.9" cy="25.8" rx="1.3" ry="0.8"/>
		<ellipse class="st2" cx="167.5" cy="30.3" rx="1.4" ry="0.8"/>
	</g>
</g>
</svg>
